<svg viewBox="0 0 1498 400" xmlns="http://www.w3.org/2000/svg"><g><g><g><g><g><line x1="30.78125" y1="377" x2="25.78125" y2="377" style="visibility: inherit;" fill="rgb(0, 0, 0)" stroke="rgb(204, 204, 204)" stroke-width="1px"></line><line x1="30.78125" y1="329.875" x2="25.78125" y2="329.875" style="visibility: inherit;" fill="rgb(0, 0, 0)" stroke="rgb(204, 204, 204)" stroke-width="1px"></line><line x1="30.78125" y1="282.75" x2="25.78125" y2="282.75" style="visibility: inherit;" fill="rgb(0, 0, 0)" stroke="rgb(204, 204, 204)" stroke-width="1px"></line><line x1="30.78125" y1="235.625" x2="25.78125" y2="235.625" style="visibility: inherit;" fill="rgb(0, 0, 0)" stroke="rgb(204, 204, 204)" stroke-width="1px"></line><line x1="30.78125" y1="188.5" x2="25.78125" y2="188.5" style="visibility: inherit;" fill="rgb(0, 0, 0)" stroke="rgb(204, 204, 204)" stroke-width="1px"></line><line x1="30.78125" y1="141.375" x2="25.78125" y2="141.375" style="visibility: inherit;" fill="rgb(0, 0, 0)" stroke="rgb(204, 204, 204)" stroke-width="1px"></line><line x1="30.78125" y1="94.25" x2="25.78125" y2="94.25" style="visibility: inherit;" fill="rgb(0, 0, 0)" stroke="rgb(204, 204, 204)" stroke-width="1px"></line><line x1="30.78125" y1="47.125" x2="25.78125" y2="47.125" style="visibility: inherit;" fill="rgb(0, 0, 0)" stroke="rgb(204, 204, 204)" stroke-width="1px"></line><line x1="30.78125" y1="0" x2="25.78125" y2="0" style="visibility: inherit;" fill="rgb(0, 0, 0)" stroke="rgb(204, 204, 204)" stroke-width="1px"></line></g><g transform="translate(20.78125, 0)"><text x="0" y="377" dx="0em" dy="0.3em" style="text-anchor: end; visibility: hidden; font-family: Roboto, sans-serif; font-size: 12px; font-weight: 200;" fill="rgb(255, 255, 255)" stroke="none" stroke-width="1px">18</text><text x="0" y="329.875" dx="0em" dy="0.3em" style="text-anchor: end; visibility: inherit; font-family: Roboto, sans-serif; font-size: 12px; font-weight: 200;" fill="rgb(255, 255, 255)" stroke="none" stroke-width="1px">20</text><text x="0" y="282.75" dx="0em" dy="0.3em" style="text-anchor: end; visibility: inherit; font-family: Roboto, sans-serif; font-size: 12px; font-weight: 200;" fill="rgb(255, 255, 255)" stroke="none" stroke-width="1px">22</text><text x="0" y="235.625" dx="0em" dy="0.3em" style="text-anchor: end; visibility: inherit; font-family: Roboto, sans-serif; font-size: 12px; font-weight: 200;" fill="rgb(255, 255, 255)" stroke="none" stroke-width="1px">24</text><text x="0" y="188.5" dx="0em" dy="0.3em" style="text-anchor: end; visibility: inherit; font-family: Roboto, sans-serif; font-size: 12px; font-weight: 200;" fill="rgb(255, 255, 255)" stroke="none" stroke-width="1px">26</text><text x="0" y="141.375" dx="0em" dy="0.3em" style="text-anchor: end; visibility: inherit; font-family: Roboto, sans-serif; font-size: 12px; font-weight: 200;" fill="rgb(255, 255, 255)" stroke="none" stroke-width="1px">28</text><text x="0" y="94.25" dx="0em" dy="0.3em" style="text-anchor: end; visibility: inherit; font-family: Roboto, sans-serif; font-size: 12px; font-weight: 200;" fill="rgb(255, 255, 255)" stroke="none" stroke-width="1px">30</text><text x="0" y="47.125" dx="0em" dy="0.3em" style="text-anchor: end; visibility: inherit; font-family: Roboto, sans-serif; font-size: 12px; font-weight: 200;" fill="rgb(255, 255, 255)" stroke="none" stroke-width="1px">32</text><text x="0" y="0" dx="0em" dy="0.3em" style="text-anchor: end; visibility: hidden; font-family: Roboto, sans-serif; font-size: 12px; font-weight: 200;" fill="rgb(255, 255, 255)" stroke="none" stroke-width="1px">34</text></g><line x1="30.78125" y1="0" x2="30.78125" y2="377" fill="rgb(0, 0, 0)" stroke="rgb(204, 204, 204)" stroke-width="1px"></line></g></g><g transform="translate(30, 0)" clip-path="url(#clip_0)"><clipPath id="clip_0"><rect width="1467" height="377"></rect></clipPath><g><g><g><line x1="0" y1="0" x2="0" y2="377" fill="rgb(0, 0, 0)" stroke="rgb(189, 189, 189)" stroke-width="1px" opacity="0.25"></line><line x1="122.26822916666666" y1="0" x2="122.26822916666666" y2="377" fill="rgb(0, 0, 0)" stroke="rgb(189, 189, 189)" stroke-width="1px" opacity="0.25"></line><line x1="244.53645833333331" y1="0" x2="244.53645833333331" y2="377" fill="rgb(0, 0, 0)" stroke="rgb(189, 189, 189)" stroke-width="1px" opacity="0.25"></line><line x1="366.8046875" y1="0" x2="366.8046875" y2="377" fill="rgb(0, 0, 0)" stroke="rgb(189, 189, 189)" stroke-width="1px" opacity="0.25"></line><line x1="489.07291666666663" y1="0" x2="489.07291666666663" y2="377" fill="rgb(0, 0, 0)" stroke="rgb(189, 189, 189)" stroke-width="1px" opacity="0.25"></line><line x1="611.3411458333334" y1="0" x2="611.3411458333334" y2="377" fill="rgb(0, 0, 0)" stroke="rgb(189, 189, 189)" stroke-width="1px" opacity="0.25"></line><line x1="733.609375" y1="0" x2="733.609375" y2="377" fill="rgb(0, 0, 0)" stroke="rgb(189, 189, 189)" stroke-width="1px" opacity="0.25"></line><line x1="855.8776041666667" y1="0" x2="855.8776041666667" y2="377" fill="rgb(0, 0, 0)" stroke="rgb(189, 189, 189)" stroke-width="1px" opacity="0.25"></line><line x1="978.1458333333333" y1="0" x2="978.1458333333333" y2="377" fill="rgb(0, 0, 0)" stroke="rgb(189, 189, 189)" stroke-width="1px" opacity="0.25"></line><line x1="1100.4140625" y1="0" x2="1100.4140625" y2="377" fill="rgb(0, 0, 0)" stroke="rgb(189, 189, 189)" stroke-width="1px" opacity="0.25"></line><line x1="1222.6822916666667" y1="0" x2="1222.6822916666667" y2="377" fill="rgb(0, 0, 0)" stroke="rgb(189, 189, 189)" stroke-width="1px" opacity="0.25"></line><line x1="1344.9505208333333" y1="0" x2="1344.9505208333333" y2="377" fill="rgb(0, 0, 0)" stroke="rgb(189, 189, 189)" stroke-width="1px" opacity="0.25"></line><line x1="1467.21875" y1="0" x2="1467.21875" y2="377" fill="rgb(0, 0, 0)" stroke="rgb(189, 189, 189)" stroke-width="1px" opacity="0.25"></line></g><g><line x1="0" y1="377" x2="1467.21875" y2="377" fill="rgb(0, 0, 0)" stroke="rgb(189, 189, 189)" stroke-width="1px" opacity="0.25"></line><line x1="0" y1="329.875" x2="1467.21875" y2="329.875" fill="rgb(0, 0, 0)" stroke="rgb(189, 189, 189)" stroke-width="1px" opacity="0.25"></line><line x1="0" y1="282.75" x2="1467.21875" y2="282.75" fill="rgb(0, 0, 0)" stroke="rgb(189, 189, 189)" stroke-width="1px" opacity="0.25"></line><line x1="0" y1="235.625" x2="1467.21875" y2="235.625" fill="rgb(0, 0, 0)" stroke="rgb(189, 189, 189)" stroke-width="1px" opacity="0.25"></line><line x1="0" y1="188.5" x2="1467.21875" y2="188.5" fill="rgb(0, 0, 0)" stroke="rgb(189, 189, 189)" stroke-width="1px" opacity="0.25"></line><line x1="0" y1="141.375" x2="1467.21875" y2="141.375" fill="rgb(0, 0, 0)" stroke="rgb(189, 189, 189)" stroke-width="1px" opacity="0.25"></line><line x1="0" y1="94.25" x2="1467.21875" y2="94.25" fill="rgb(0, 0, 0)" stroke="rgb(189, 189, 189)" stroke-width="1px" opacity="0.25"></line><line x1="0" y1="47.125" x2="1467.21875" y2="47.125" fill="rgb(0, 0, 0)" stroke="rgb(189, 189, 189)" stroke-width="1px" opacity="0.25"></line><line x1="0" y1="0" x2="1467.21875" y2="0" fill="rgb(0, 0, 0)" stroke="rgb(189, 189, 189)" stroke-width="1px" opacity="0.25"></line></g></g></g><g><g><line x1="0" y1="801.125" x2="1467.21875" y2="801.125" fill="rgb(0, 0, 0)" stroke="rgb(153, 153, 153)" stroke-width="1.5px"></line></g></g><g><g><line x1="122.26822916666666" y1="0" x2="122.26822916666666" y2="377" fill="rgb(0, 0, 0)" stroke="rgb(153, 153, 153)" stroke-width="1.5px"></line></g></g><g><g><g><g><g><path stroke="rgb(255, 112, 67)" stroke-width="2px" d="M123.42855466145834,356.22335863113403L125.201443984375,315.8471941947937L126.11845570312501,308.520360827446L126.17958981770833,302.6871715784073L127.76907679687498,282.21793282032013L128.62495440104166,277.65961050987244L128.869490859375,261.23550248146057L130.153307265625,264.31307899951935L132.354135390625,247.3758692741394L132.84320830729166,256.21153712272644L134.004756484375,251.42890977859497L134.738365859375,251.62571036815643L137.24486455729166,247.51784074306488L138.16187627604168,243.95704889297485L139.56796091145833,239.5797975063324L139.75136325520833,215.87218010425568L141.82992315104167,243.202294588089L144.70322653645835,215.10780823230743L145.92590882812502,211.79078125953674L146.90405466145833,229.80259680747986L147.69879815104167,227.85274744033813L149.04374867187502,214.31629145145416L150.75550388020832,214.97064554691315L151.36684502604166,214.2414631843567L151.73364971354167,206.88290083408356L153.50653903645835,215.2010177373886L154.912623671875,213.696857213974L155.21829424479168,192.04272520542145L155.34056247395833,206.7499177455902L156.31870830729167,198.12516224384308L156.68551299479168,196.1149559020996L158.64180466145834,203.2201807498932L158.764072890625,207.4216194152832L161.27057158854169,194.39511919021606L161.63737627604166,199.77093470096588L161.698510390625,176.30829560756683L162.55438799479168,180.92742431163788L163.59366794270832,184.06675100326538L166.40583721354164,186.56021761894226L169.034604140625,200.33693301677704L169.70707940104165,200.93268287181854L171.47996872395834,206.0842832326889L174.720076796875,186.54331946372986L175.270283828125,189.31551575660706L176.49296611979167,163.5184144973755L179.91647653645833,187.57518553733826L183.40112106770832,162.7014605998993L184.37926690104166,178.47606825828552L185.05174216145835,177.3033093214035L185.72421742187498,178.05725467205048L186.88576559895836,190.1683782339096L187.80277731770832,144.20283436775208L188.16958200520833,170.51416087150574L190.12587367187498,182.37981176376343L190.2481419010417,200.8174068927765L191.10401950520833,159.01442694664001L191.53195830729166,184.4102419614792L192.69350648437498,167.02015268802643L192.7546405989583,168.4958200454712L193.48824997395832,185.79463231563568L194.09959111979165,170.93531143665314L194.2218593489583,202.80114245414734L194.71093226562502,174.72350931167603L196.78949216145833,175.43601822853088L198.86805205729166,178.2002148628235L198.9903202864583,164.16297125816345L199.17372263020835,181.691481590271L199.41825908854167,172.6480473279953L199.78506377604168,157.69178676605225L200.02960023437498,164.73750853538513L203.330842421875,179.47593569755554L204.55352471354166,169.33349215984344L206.38754815104164,165.37824523448944L206.44868226562502,174.53232645988464L208.95518096354166,167.43523609638214L211.400545546875,161.85273277759552L211.46167966145833,169.51240587234497L213.66250778645832,169.6512314081192L214.15158070312498,158.2079894542694L214.6406536197917,181.0501606464386L214.82405596354167,165.13439047336578L216.96374997395833,155.7015346288681L217.1471523177083,165.23353230953217L218.003029921875,178.00557148456573L218.186432265625,150.65977227687836L219.22571221354167,149.80780863761902L219.89818747395833,170.90785193443298L221.79334502604166,155.33206725120544L222.28241794270832,151.4480082988739L224.42211195312498,150.29165315628052L225.33912367187503,184.0925476551056L226.37840361979164,144.26593279838562L226.50067184895835,160.58991026878357L226.92861065104168,141.95223379135132L230.96346221354167,149.03705501556396L235.24285023437497,137.77092909812927L236.03759372395834,174.50697922706604L236.46553252604167,171.38180923461914L238.42182419270833,161.6275738477707L238.6052265364583,134.72786796092987L239.0331653385417,142.01029872894287L240.928322890625,157.98952686786652L242.15100518229167,147.25537824630737L242.212139296875,152.92924845218658L243.312553359375,179.70199346542358L248.8757577864583,165.2638680934906L249.42596481770835,139.7397439479828L250.03730596354166,146.54839718341827L250.70978122395832,131.18855834007263L257.37339971354163,171.91679763793945L259.20742315104167,148.24904370307922L264.0981523177083,140.57602286338806L266.54351690104164,185.3621563911438L268.68321091145833,156.37638223171234L271.2508437239583,106.94500875473022L271.55651429687504,151.4834225177765L272.35125778645835,135.32087635993958L272.840330703125,146.38476371765137L273.023733046875,148.39263308048248L274.2464153385417,171.89855122566223L275.34682940104165,161.77741014957428L276.2027070052083,146.8870793581009L276.9974504947917,137.83366799354553L279.8707538802083,162.37985634803772L279.9318879947917,157.36254239082336L281.2157044010417,156.19800782203674L282.927459609375,140.46640956401825L283.4165325260417,142.39985513687134L283.90560544270835,137.19427955150604L286.412104140625,170.17327654361725L286.962311171875,144.71777868270874L287.879322890625,122.9583477973938L288.429529921875,149.04334688186646L289.46880986979164,150.80866479873657L289.83561455729165,125.94954597949982L290.630358046875,148.65747570991516L290.6914921614583,177.8849024772644L290.75262627604167,140.8080129623413L291.363967421875,132.4199664592743L291.54736976562504,113.23161685466766L292.58664971354165,146.27115058898926L294.2372708072917,132.55191588401794L295.582221328125,148.06186068058014L296.1935624739583,120.33383059501648L297.232842421875,133.70939457416534L300.900889296875,131.92974019050598L302.7960468489583,152.04816246032715L302.97944919270833,154.1815994977951L303.4073879947917,131.3209571838379L304.07986325520835,157.46532452106476L307.80904424479166,130.11705350875854L310.804615859375,132.20406556129456L310.8657499739583,127.87526154518127L312.0272981510417,148.27798628807068L312.088432265625,131.96205341815948L312.14956638020834,117.07761001586914L313.06657809895836,124.65090477466583L314.5949309635417,124.89857959747314L316.306686171875,132.6711916923523L317.46823434895833,96.85060811042786L317.8961731510417,117.52545607089996L318.99658721354166,133.59196138381958L319.17998955729166,151.01274597644806L320.4638059635417,135.23377895355225L321.93102471354166,123.3434100151062L322.11442705729166,135.90534579753876L324.43752341145836,137.3763391971588L326.51608330729164,150.57950603961945L327.494229140625,141.00674605369568L330.428666640625,165.5851128101349L333.91331117187497,108.39416038990021L335.25826169270834,136.8962697982788L335.31939580729164,91.10011196136475L335.747334609375,134.8992314338684L336.297541640625,131.63937056064606L337.8870286197917,146.53253269195557L340.33239320312504,146.58736181259155L340.515795546875,130.37241339683533L342.4109530989583,143.44497907161713L343.3890989322917,142.88504791259766L345.7121952864583,132.24244594573975L345.89559763020833,136.30923867225647L346.017865859375,137.92795610427856L346.14013408854163,136.48612999916077L346.3235364322917,144.1132651567459L346.568072890625,130.83261847496033L346.751475234375,147.3623399734497L347.9130234114583,158.88921880722046L349.2579739322917,126.83997988700867L352.253545546875,143.42772138118744L353.537361953125,129.37092804908752L357.572213515625,138.43121552467346L357.6944817447917,113.53101980686188L358.856029921875,162.79408586025238L360.873455703125,125.21263360977173L361.423662734375,137.0091189146042L361.6681991927083,158.50532507896423L362.0350038802083,111.71181654930115L362.7686132552083,138.84292829036713L362.9520155989583,129.06163787841797L365.3362460677083,95.83788728713989L367.59820830729166,133.23674058914185L367.7204765364583,120.82059633731842L368.2706835677083,90.4822506904602L368.943158828125,118.97667503356934L369.309963515625,104.02000999450684L369.73790231770835,123.51072871685028L371.99986455729163,122.44924592971802L373.52821742187496,123.62843155860901L373.895022109375,134.30105471611023L374.26182679687497,127.66987705230713L374.445229140625,139.80989825725555L375.7901796614583,133.87392687797546L377.929873671875,136.01940834522247L378.60234893229165,152.3557448387146L380.74204294270834,146.88496708869934L382.5760663802083,109.60192906856537L386.30524736979163,113.99212372303009L386.916588515625,151.8026897907257L391.01257419270837,122.3750468492508L393.9470116927084,142.67512428760529L394.61948695312503,106.03772163391113L398.9600090885417,116.90319049358368L399.57135023437496,140.07069611549377L399.8158866927084,144.1186581850052L401.3442395572917,131.6507408618927L404.0952747135417,112.63487827777863L404.2786770572917,126.19901847839355L406.540639296875,118.96665298938751L408.8026015364583,129.66835355758667L409.0471379947916,137.50316524505615L409.1694062239583,115.69789361953735L409.53621091145834,90.35650324821472L410.08641794270835,117.3915741443634L411.492502578125,141.62285459041595L411.92044138020833,134.87109780311584L414.3046718489583,141.15806543827057L414.3658059635416,115.97311782836914L416.19982940104165,148.02145791053772L417.60591403645833,151.40032494068146L417.728182265625,107.87642967700958L417.911584609375,139.90607392787933L417.97271872395834,135.9796347618103L418.461791640625,125.98082554340363L420.78488799479163,140.66114282608032L422.49664320312496,131.67581844329834L423.65819138020834,107.1317423582077L424.330666640625,111.68921077251434L424.880873671875,128.94685626029968L426.77603122395834,111.71397376060486L427.448506484375,119.588693857193L430.87201690104166,112.61568808555603L432.033565078125,164.8397513628006L432.8283085677083,123.5650634765625L433.3785155989583,123.10697066783905L433.50078382812495,116.43826651573181L436.068416640625,125.91139030456543L436.3129530989583,95.73483550548553L436.55748955729166,132.3025782108307L437.2299648177083,110.19817328453064L437.4133671614584,124.83723390102386L437.4745012760417,101.81965446472168L439.4307929427083,124.7687873840332L440.2255364322916,132.88794648647308L441.3259504947917,96.42918789386749L441.75388929687495,109.018807888031L442.54863278645837,94.0815577507019L443.46564450520833,101.00440835952759L444.0158515364584,131.37021350860596L444.19925388020835,118.62536418437958L446.0332773177083,107.00352311134338L447.5004960677083,86.8280246257782L447.6838984114583,110.86102139949799L447.806166640625,108.49451565742493L448.0507030989583,126.82631754875183L450.1292629947917,108.77167236804962L450.6183359114583,106.26764440536499L452.63576169270834,126.45482778549194L455.20339450520834,119.97959852218628L455.7536015364583,88.4248104095459L456.059272109375,132.52562487125397L458.81030726562506,115.40644538402557L459.11597783854165,109.40773510932922L459.84958721354167,108.60974669456482L462.661756484375,119.15994811058044L468.7751679427083,105.38345742225647L472.62661716145834,119.62873709201813L474.3383723697917,118.17459690570831L475.7444570052083,152.5462086200714L478.86229684895835,135.2788107395172L480.94085674479163,133.62845420837402L481.73560023437506,142.11083376407623L485.95385414062497,106.15672779083252L486.4429270572917,131.6646728515625L486.9319999739584,109.01611137390137L487.971279921875,115.91334509849548L488.9494257552083,122.72599816322327L489.68303513020834,101.96176075935364L491.8838632552083,121.97618746757507L492.372936171875,123.29702997207642L493.9012890364583,121.58699059486389L495.91871481770835,123.75193190574646L496.040983046875,111.44270443916321L497.2636653385417,111.46805167198181L497.5693359114583,119.86158108711243L497.691604140625,99.03945851325989L497.8138723697916,139.99159836769104L502.8880038802083,136.2101867198944L503.98841794270834,116.44271576404572L506.1892460677084,117.29449963569641L506.31151429687503,132.68116879463196L507.4730624739583,96.64657187461853L509.429354140625,102.04611670970917L509.55162236979163,111.91895377635956L511.01884111979166,93.34244322776794L511.07997523437496,80.03716838359833L511.3856458072917,121.64550495147705L511.6913163802083,104.31366038322449L518.049264296875,102.29864525794983L519.149678359375,140.81448459625244L521.4116405989583,115.55138301849365L521.5950429427083,96.5666651725769L522.5120546614584,122.78204071521759L522.817725234375,120.44910657405853L523.6124687239583,123.51922273635864L523.918139296875,116.2291967868805L524.8962851302083,125.52228331565857L525.201955703125,140.74437522888184L525.752162734375,114.35143423080444L526.7303085677083,104.9752950668335L528.8088684635417,82.27230894565582L530.2760872135417,90.1942629814148L533.1493905989583,116.52091467380524L533.7607317447917,84.09942197799683L534.005268203125,103.29752397537231L534.9834140364584,75.18195986747742L535.655889296875,126.89314615726471L538.1623879947916,119.58339071273804L540.607752578125,112.05279076099396L541.0968254947917,91.8176543712616L541.6470325260417,107.73346948623657L542.625178359375,115.60365045070648L545.1316770572917,110.9467705488205L545.3150794010417,93.1395754814148L545.9875546614583,118.71551764011383L548.7385898177083,134.76305747032166L549.7167356510416,112.95742630958557L550.0224062239583,145.77337408065796L550.144674453125,142.3046681880951L551.3673567447917,71.25673413276672L552.0398320052084,129.82398736476898L553.5681848697917,102.62227189540863L557.4196340885417,129.1550271511078L557.6030364322917,98.30470335483551L557.9698411197917,113.60085952281952L560.2929374739583,103.08157813549042L561.148815078125,125.76955366134644L561.2710833072916,115.4295904636383L562.9217044010417,93.74390923976898L564.0221184635417,112.31304931640625L565.733873671875,118.50433564186096L567.017690078125,78.07289266586304L569.0962499739584,105.2016224861145L570.685736953125,102.15743780136108L570.9302734114583,85.31752729415894L571.8472851302083,117.80441045761108L572.703162734375,112.25174856185913L576.187807265625,111.2581729888916L576.8602825260416,130.89827859401703L576.921416640625,114.4806421995163L578.6331718489583,119.41813933849335L578.8777083072916,121.28462147712708L578.9999765364583,113.98353981971741L579.7335859114584,116.80481266975403L581.2008046614583,118.96081054210663L581.9344140364583,112.50270414352417L582.423486953125,106.35267448425293L582.790291640625,103.21226918697357L583.4627669010416,93.93846273422241L583.9518398177083,110.69334316253662L584.074108046875,91.76179158687592L586.5194726302083,133.79730093479156L587.0696796614583,77.64720296859741L587.191947890625,92.44562757015228L587.375350234375,91.66449236869812L589.2705077864583,114.13431990146637L589.6373124739583,110.99930763244629L590.6154583072916,81.59728157520294L594.711443984375,97.920450091362L594.894846328125,121.45890617370605L596.4843333072916,128.3280062675476L598.8074296614584,131.67829024791718L598.8685637760417,92.60355341434479L600.4580507552083,90.7270941734314L601.4973307031249,126.76726388931274L601.7418671614583,102.66991031169891L602.230940078125,113.22402167320251L602.5366106510417,80.22911524772644L602.597744765625,93.7900196313858L602.964549453125,90.12577152252197L604.981975234375,108.77338016033173L605.348779921875,96.53871130943298L606.8771327864583,67.10374283790588L607.0605351302083,86.47810697555542L610.5451796614584,83.91803646087646L614.2132265364584,119.87254691123962L614.702299453125,117.81681442260742L616.169518203125,113.54068231582642L617.269932265625,130.3570432662964L618.8594192447916,137.16753911972046L620.2043697656251,111.16617691516876L621.3659179427083,100.4729254245758L621.4270520572917,112.94021356105804L623.138807265625,120.67183864116669L624.606026015625,125.2108359336853L625.4007695052084,97.31283557415009L626.990256484375,120.25904726982117L628.3352070052083,136.3733707666397L628.7020116927083,126.57320475578308L629.191084609375,138.01873874664307L629.4967551822916,79.98278868198395L632.9202655989583,129.63608527183533L633.592740859375,148.0693210363388L634.4486184635417,99.05927789211273L635.6713007552083,97.70054936408997L636.5271783593751,111.25983583927155L636.8328489322917,132.42459547519684L641.4179075260416,101.17833352088928L643.2519309635417,112.36778855323792L643.8021379947917,86.38930177688599L644.9025520572917,96.08246111869812L645.2693567447917,113.94830536842346L645.8195637760416,112.30001616477966L649.181940078125,76.09567368030548L649.732147109375,109.53105568885803L651.6884387760416,104.32543516159058L651.932975234375,115.83901119232178L653.8281327864584,93.60189282894135L654.1949374739584,107.22427773475647L655.2953515364583,111.1450092792511L655.6621562239584,115.55380988121033L657.3739114322917,107.83306074142456L657.4961796614583,103.01749098300934L658.8411301822916,102.6563378572464L658.9633984114583,148.24607753753662L661.7144335677084,90.47155451774597L662.3257747135417,89.5103371143341L664.2820663802083,121.97088432312012L664.587736953125,83.12085700035095L665.0156757552083,110.1659049987793L665.688151015625,119.24443888664246L667.4610403385417,111.91688644886017L667.705576796875,108.28859186172485L671.6181601302084,133.66449761390686L671.9238307031251,101.54429543018341L672.9019765364583,58.940001368522644L674.5525976302083,120.51099157333374L675.5307434635417,117.33548665046692L676.0809504947916,134.0916703939438L676.8145598697917,130.23093628883362L679.6878632552083,100.11154758930206L679.9323997135417,127.12715864181519L681.827557265625,98.56909656524658L684.1506536197917,103.44385480880737L684.945397109375,81.76194870471954L685.495604140625,96.64472925662994L686.1069452864583,90.2508897781372L686.3514817447916,128.61729729175568L687.9409687239583,88.3262528181076L690.3251991927084,118.39418303966522L691.0588085677084,140.6828497648239L691.181076796875,74.27781867980957L691.6090155989583,106.78438639640808L692.5260273177083,97.72081816196442L693.6264413802083,120.39926600456238L694.482318984375,112.29237604141235L694.8491236718751,83.63301491737366L695.2770624739583,79.80917811393738L695.582733046875,99.73655235767365L696.1940741927084,108.62367868423462L699.617584609375,102.44380760192871L700.4123280989584,101.47490513324738L702.368619765625,126.8128799200058L702.4908879947917,108.20419096946716L705.4253254947917,97.33638513088226L705.9755325260417,130.50184607505798L706.5257395572917,96.28411543369293L707.137080703125,71.80799150466919L708.787701796875,97.57547605037689L709.6435794010417,72.28469026088715L713.556162734375,98.17032706737518L713.6172968489583,97.32052063941956L714.839979140625,102.34318268299103L715.573588515625,101.6806491613388L716.0626614322916,128.5956802368164L717.5298801822917,126.79971194267273L718.5691601302084,63.73125755786896L718.6302942447917,120.10489654541016L719.7307083072916,159.07024478912354L722.2372070052083,102.32794737815857L722.9096822656251,98.45660698413849L723.7044257552084,111.66058278083801L724.4991692447917,93.84462404251099L725.5384491927083,103.82707440853119L727.1890702864583,138.7888182401657L727.8004114322916,99.44636249542236L728.5340208072917,134.5572235584259L728.595154921875,120.23999190330505L730.4903124739584,83.66797971725464L730.5514465885417,101.82333970069885L730.612580703125,73.89810454845428L731.2239218489583,132.3081510066986L732.0186653385417,97.06857633590698L732.3854700260416,96.56697976589203L732.8745429427083,134.68782472610474L733.2413476302083,121.16772758960724L737.5207356510417,121.64078605175018L739.1713567447916,114.25256204605103L741.066514296875,97.12273132801056L741.3721848697917,119.4590814113617L742.1057942447916,111.52854347229004L745.3459023177084,79.04682862758636L746.385182265625,88.19852793216705L746.8131210677084,89.17987930774689L750.1143632552083,97.13846099376678L750.7868385156249,99.30331242084503L754.5771536197917,111.71752417087555L754.7605559635416,95.52028286457062L754.821690078125,131.99692833423615L757.8172616927083,68.12608122825623L760.8739674218749,70.512091755867L761.240772109375,123.37500417232513L761.3019062239583,111.84232783317566L761.6687109114584,80.68078136444092L764.2974778385417,118.93631720542908L765.3367577864583,70.9648814201355L767.3541835677083,79.23765194416046L767.9655247135416,128.00523352622986L768.6991340885417,126.85921502113342L770.1052187239583,127.85018396377563L771.2056327864583,45.20517182350159L772.3671809635416,79.02903163433075L772.978522109375,64.10414052009583L773.1007903385417,91.49362325668335L776.8911054427083,95.29036009311676L777.5024465885417,103.72528100013733L777.9303853906251,98.88252139091492L778.2360559635416,117.27346682548523L779.214201796875,140.4465901851654L779.6421405989583,109.52368521690369L780.8036887760417,113.54989540576935L785.1442109114582,106.89507830142975L788.5065872135416,74.30141317844391L793.336182265625,128.82160317897797L796.1483515364583,106.5643059015274L796.2094856510416,67.29061126708984L796.5151562239583,121.64617908000946L797.004229140625,102.09991216659546L798.104643203125,101.86172008514404L800.5500077864583,85.71189248561859L802.0172265364583,101.93299794197083L802.3840312239583,89.77324724197388L802.4451653385418,110.17147779464722L804.523725234375,105.95754528045654L805.1962004947917,105.06212282180786L807.5192968489584,79.55035769939423L807.7638333072917,112.85904848575592L808.1306379947916,52.0745415687561L808.5585767968751,98.74625754356384L808.6197109114582,103.87633073329926L810.4537343489584,92.35924923419952L814.9776588281251,82.44879579544067L815.0387929427084,94.13094890117645L817.0562187239583,65.44520688056946L818.8902421614583,106.92496466636658L819.5015833072918,111.60260772705078L819.8072538802082,70.36450254917145L821.8858137760417,112.85468912124634L822.1914843489583,97.47898578643799L822.3137525781251,87.96033585071564L822.9862278385416,133.29318761825562L823.1084960677084,149.14392685890198L826.9599452864584,73.06142115592957L829.6498463281249,53.30235433578491L830.1389192447917,103.34358942508698L832.1563450260417,79.51256155967712L837.3527447656251,97.17050457000732L839.7981093489583,103.93057560920715L841.020791640625,123.96477675437927L841.570998671875,117.49188446998596L842.854815078125,104.62070345878601L844.7499726302083,110.75104856491089L844.872240859375,94.99082231521606L845.1167773177083,80.0271463394165L846.4005937239583,89.76255106925964L846.5839960677083,110.56624746322632L846.8285325260417,93.35920655727386L847.8066783593749,99.35593938827515L848.3568853906249,103.58191633224487L848.723690078125,79.57431173324585L850.9856523177083,78.87559998035431L852.3306028385416,118.53876113891602L853.1864804427083,113.12344169616699L854.1034921614583,95.18766784667969L854.2257603906249,73.3835197687149L854.5314309635417,78.15963053703308L856.6711249739584,107.07003712654114L857.5881366927083,74.33022093772888L859.4221601302083,85.78842854499817L859.7889648177082,95.84175229072571L860.094635390625,104.54583024978638L860.5837083072917,112.46131265163422L864.1906210677083,110.7017023563385L866.6359856510417,95.41664683818817L866.880522109375,73.34262263774872L868.7756796614583,123.39455389976501L870.3040325260416,91.56449663639069L870.9765077864582,94.85599660873413L871.9546536197917,95.5457649230957L872.5048606510417,53.56841039657593L874.400018203125,128.48386478424072L874.5222864322917,91.62107849121094L874.766822890625,136.63129234313965L875.2558958072916,78.89128470420837L877.0287851302083,112.58364450931549L877.5789921614584,130.2325541973114L878.3126015364583,71.59811282157898L878.5571379947918,116.74926447868347L880.0243567447917,134.17688024044037L880.268893203125,99.25122475624084L880.3911614322917,92.6597307920456L881.6749778385416,110.48526215553284L881.736111953125,81.43068194389343L882.653123671875,76.55493497848511L883.019928359375,115.12856960296631L883.386733046875,119.41000485420227L885.037354140625,113.22006678581238L885.1596223697917,94.17575597763062L885.2818905989583,42.98450255393982L887.8495234114583,71.9750405550003L889.805815078125,35.92170286178589L892.6791184635417,110.74902617931366L895.5524218489584,101.0739334821701L895.8580924218751,79.24169671535492L897.4475794010417,106.36876368522644L899.2204687239584,80.31261730194092L903.744393203125,50.64147913455963L904.2946002343749,114.81065058708191L907.7181106510417,54.318490743637085L908.3905859114584,100.21882390975952L911.0193528385416,84.30790746212006L911.2638892968749,121.83560919761658L912.3031692447917,47.58030641078949L913.648119765625,108.97934889793396L915.3598749739583,110.79563093185425L915.6044114322917,68.54844522476196L916.8882278385416,57.07221591472626L917.682971328125,61.4749493598938L918.5388489322918,83.19379770755768L918.7833853906251,87.05349814891815L919.2724583072917,146.87058568000793L919.3335924218751,109.52062916755676L919.9449335677083,57.98925542831421L920.0060676822917,91.34567451477051L922.4514322656249,100.90787315368652L922.6959687239582,69.64925217628479L928.5648437239582,142.07699251174927L929.9097942447917,59.25122404098511L930.9490741927083,110.93962478637695L931.3770129947916,100.98391485214233L931.9272200260416,60.02557301521301L932.355158828125,65.32984101772308L933.0276340885417,89.81720042228699L935.656401015625,64.32494008541107L938.4074361718751,86.07978689670563L940.7916666406251,99.31387376785278L942.625690078125,95.91509747505188L944.8876523177083,82.5318933725357L948.9836379947916,48.52022135257721L949.5338450260416,69.37667953968048L949.594979140625,124.33280599117279L950.6953932031249,78.8926329612732L951.1844661197918,87.81297135353088L952.2848801822917,68.83575880527496L953.0184895572917,105.37527799606323L955.1581835677083,74.84992909431458L956.3197317447916,124.27011203765869L956.4419999739583,112.3922369480133L956.6254023177083,97.73924434185028L957.4201458072916,98.92629480361938L959.9877786197917,68.95045053958893L960.8436562239583,103.9810004234314L962.066338515625,78.23405432701111L963.4724231510415,121.26012814044952L966.101190078125,68.78142404556274L967.8740794010416,81.20192766189575L968.9744934635416,85.76613736152649L971.4809921614583,83.44709026813507L973.0704791406249,106.36862885951996L976.4328554427083,112.67842698097229L976.9830624739583,104.4093416929245L978.572549453125,93.21026909351349L980.3454387760416,79.02215552330017L981.0179140364584,105.13178277015686L984.441424453125,116.82998013496399L985.1138997135416,87.05713844299316L985.9697773177083,92.35578870773315L986.7645208072917,82.07887899875641L987.8649348697916,71.8802580833435L989.026483046875,97.80310678482056L989.6989583072917,64.54717779159546L990.0657629947917,76.31952929496765L990.7993723697916,87.63684403896332L991.4718476302082,94.59820985794067L991.8386523177084,47.17928981781006L991.8997864322916,124.86887300014496L993.9783463281251,51.44872558116913L994.4062851302083,92.60013782978058L999.5415507552084,62.88900136947632L999.8472213281251,109.83917737007141L1000.2751601302083,45.332716941833496L1000.580830703125,81.42488443851471L1000.6419648177084,88.08846521377563L1002.598256484375,99.03743612766266L1002.6593905989582,142.76217675209045L1002.9650611718749,88.43447291851044L1003.8209387760417,58.56226468086243L1004.3100116927084,78.43764114379883L1004.3711458072918,54.91657757759094L1004.8602187239584,110.60880744457245L1008.4059973697916,83.70941615104675L1008.5282655989582,112.46445858478546L1010.9124960677084,71.78403747081757L1010.9736301822917,55.983543276786804L1011.7072395572917,90.32144856452942L1013.4801288802083,59.85456907749176L1016.2922981510417,64.19231653213501L1017.637248671875,57.62801241874695L1023.7506601302083,103.7891434431076L1024.6676718489582,86.19146752357483L1025.706951796875,67.97431242465973L1026.1960247135416,100.84558367729187L1028.2745846093749,77.66459548473358L1029.5584010156251,99.35054636001587L1030.2308762760417,104.85723268985748L1031.0256197656252,101.1904228925705L1031.2701562239583,107.69679689407349L1033.1653137760418,64.6182758808136L1033.4709843489584,94.1826320886612L1033.8377890364584,118.64590263366699L1034.510264296875,112.89936137199402L1034.7548007552084,81.72550082206726L1035.6718124739584,87.45478439331055L1036.527690078125,86.27465498447418L1040.5014075260417,79.81825637817383L1043.313576796875,71.86264085769653L1043.3747109114584,121.71138978004456L1043.6192473697915,147.27286064624786L1045.331002578125,112.72507667541504L1046.064611953125,102.95911145210266L1046.6759530989582,98.81479394435883L1046.9204895572916,73.83568024635315L1047.7763671614584,83.29451251029968L1048.6933788802082,113.75608885288239L1050.099463515625,100.6831636428833L1050.6496705468749,129.03017854690552L1051.5055481510417,91.91293120384216L1058.7805077864582,56.765981793403625L1059.7586536197916,75.82184267044067L1060.6145312239585,66.82078862190247L1061.470408828125,92.50877094268799L1062.020615859375,122.448122382164L1063.7935051822917,78.13041830062866L1064.955053359375,73.58144390583038L1065.9331991927083,58.68518078327179L1066.3000038802084,72.7641304731369L1067.2170155989584,72.29740881919861L1067.5838202864584,100.22300350666046L1069.2955754947918,107.70879638195038L1069.4178437239584,83.31446671485901L1069.906916640625,95.2405195236206L1076.6316692447915,70.95436501502991L1078.0377538802084,80.87776172161102L1078.343424453125,70.51366472244263L1080.177447890625,127.9019570350647L1082.1337395572916,56.56486678123474L1082.8673489322916,103.90855407714844L1083.478690078125,113.18204593658447L1085.129311171875,52.15602123737335L1085.8017864322917,72.1310338973999L1087.2078710677083,99.33068203926086L1087.6358098697917,89.02334666252136L1087.8192122135417,92.79608452320099L1088.3082851302083,66.13128995895386L1088.6139557031252,90.08775067329407L1089.1030286197918,125.27344000339508L1089.4698333072915,136.77245485782623L1090.1423085677084,96.59902334213257L1092.7099413802084,105.59823477268219L1092.832209609375,93.60463428497314L1095.6443788802083,46.808788776397705L1095.7055129947917,132.35012674331665L1098.150877578125,101.202871799469L1099.2512916406251,117.27216351032257L1101.268717421875,126.84654140472412L1102.4302655989584,122.07461023330688L1103.0416067447916,93.1649227142334L1105.120166640625,80.18295991420746L1106.8930559635417,90.3449981212616L1107.6266653385417,92.5404999256134L1108.1157382552083,92.8385546207428L1109.6440911197917,129.77949488162994L1111.7837851302083,103.35037565231323L1111.8449192447915,87.46669399738312L1114.9016249739582,108.87912845611572L1115.0850273177084,110.45685887336731L1115.207295546875,88.83980393409729L1115.574100234375,71.11894226074219L1119.608951796875,107.48098587989807L1121.5041093489583,90.20154356956482L1121.6263775781251,54.552817821502686L1124.4385468489584,73.80862522125244L1125.6000950260416,113.40414881706238L1125.661229140625,77.13616859912872L1125.7834973697918,72.33174443244934L1126.578240859375,129.15138685703278L1130.062885390625,99.81353783607483L1130.246287734375,88.11731791496277L1134.3422734114583,76.21571350097656L1137.3378450260416,84.51428067684174L1137.4601132552084,83.41064238548279L1138.0714544010418,98.47723531723022L1140.2111484114582,71.38293099403381L1140.7613554427082,81.50771236419678L1145.1630116927083,129.63941097259521L1145.4075481510415,136.09127044677734L1148.953326796875,74.2427190542221L1150.3594114322916,101.91043710708618L1151.4598254947916,95.9132548570633L1153.2938489322917,105.18440973758698L1153.4161171614583,99.44204807281494L1154.271994765625,111.54085755348206L1154.455397109375,86.63261723518372L1155.9226158593751,120.59710025787354L1158.3679804427084,130.30935990810394L1158.6125169010415,108.8999365568161L1161.7303567447916,109.52705585956573L1162.5862343489584,71.47730898857117L1164.2368554427082,102.15869617462158L1164.909330703125,110.89598619937897L1165.092733046875,91.79936301708221L1166.2542812239583,110.63195252418518L1168.944182265625,122.3170268535614L1169.310986953125,55.97073483467102L1169.3721210677083,88.16109132766724L1170.3502669010416,108.0031658411026L1171.0838762760418,106.5446662902832L1173.2847044010416,78.41813635826111L1174.262850234375,70.9260516166687L1175.6078007552082,95.38577175140381L1175.730068984375,123.91282391548157L1176.8916171614583,88.13273298740387L1177.6863606510417,69.85203003883362L1177.747494765625,73.2245602607727L1177.8697629947917,128.92321681976318L1178.2977017968751,76.62980818748474L1178.7867747135417,65.36125540733337L1185.6949296614582,131.0041617155075L1187.467818984375,100.19024085998535L1187.9568919010417,89.65311753749847L1188.018026015625,73.2201110124588L1193.0921575260418,52.233725786209106L1193.520096328125,118.99608993530273L1196.0265950260416,110.75379002094269L1199.3278372135417,87.06221687793732L1200.2448489322917,48.45698809623718L1200.305983046875,54.143486976623535L1201.2229947656251,115.5642364025116L1201.2841288802083,85.26872038841248L1202.6290794010417,92.88511443138123L1203.6683593489583,91.18199610710144L1204.2185663802084,50.309133768081665L1206.2971262760418,101.651886343956L1208.1311497135416,107.58363318443298L1208.559088515625,113.35893726348877L1211.3712577864585,121.12957191467285L1214.3668294010417,56.846877217292786L1214.9781705468752,66.15254747867584L1215.4061093489584,86.38912200927734L1215.4672434635418,119.84090781211853L1215.711779921875,78.33130860328674L1218.096010390625,101.65399861335754L1218.7684856510416,70.41061294078827L1219.8077655989582,95.06003284454346L1220.5413749739585,62.18853688240051L1223.047873671875,111.9290657043457L1223.231276015625,96.44487261772156L1224.881897109375,95.83797717094421L1225.3098359114583,72.98834562301636L1226.6547864322918,78.89290261268616L1227.632932265625,81.30655241012573L1227.9386028385416,63.26165962219238L1228.1220051822918,68.70929229259491L1229.4058215885416,123.6436219215393L1230.1394309635416,103.50618922710419L1230.6285038802084,98.41975462436676L1230.8730403385416,107.25681567192078L1231.117576796875,102.77956855297089L1235.3969648177083,90.53159689903259L1239.6152187239584,87.20185136795044L1241.388108046875,52.03921723365784L1242.7941926822916,73.97005653381348L1243.038729140625,91.25983548164368L1243.8334726302082,123.36633038520813L1245.1172890364583,86.3028335571289L1245.606361953125,89.70385694503784L1247.440385390625,106.16733407974243L1247.5015195052083,80.05644845962524L1248.2351288802083,95.81101202964783L1248.9687382552083,89.20342886447906L1249.457811171875,98.00103092193604L1249.8857499739584,102.17927956581116L1250.4970911197918,97.51727628707886L1251.3529687239584,65.04859459400177L1252.1477122135418,105.99372351169586L1252.6979192447918,93.42347347736359L1253.9206015364582,108.52934563159943L1254.6542109114584,80.4657793045044L1255.876893203125,120.05429196357727L1258.5667942447915,96.38204383850098L1260.4008176822917,81.40987384319305L1260.7064882552083,119.47633910179138L1260.7676223697918,69.26099908351898L1261.5012317447915,92.39277589321136L1261.8069023177084,87.99157047271729L1262.1737070052084,70.14586019515991L1263.8243280989584,63.35576796531677L1269.081861953125,123.43976545333862L1269.1429960677083,71.08339321613312L1269.5098007552083,104.52578616142273L1269.6932030989583,89.50422501564026L1270.4268124739583,91.40737974643707L1271.3438241927083,86.44368147850037L1276.051151015625,69.36207342147827L1277.6406379947916,93.58328688144684L1278.0074426822916,88.30800640583038L1278.068576796875,75.00821447372437L1279.6580637760417,73.35866689682007L1280.2082708072917,82.39998888969421L1281.7366236718751,78.60594856739044L1283.3261106510417,54.6472407579422L1286.0771458072916,96.3042494058609L1286.2605481510418,68.45011234283447L1287.605498671875,106.85063076019287L1289.9285950260416,106.05048513412476L1290.539936171875,80.68455648422241L1290.7844726302085,103.92563199996948L1290.8456067447917,91.91086387634277L1296.6533476302084,99.66931927204132L1296.775615859375,140.51593554019928L1297.0812864322918,111.77401614189148L1300.7493333072916,83.48021245002747L1300.8716015364582,90.26383304595947L1302.7667590885417,104.66187024116516L1303.3781002343749,48.11444091796875L1306.4348059635415,62.61085593700409L1306.9238788802083,83.71062958240509L1307.8408905989584,73.87990307807922L1308.4522317447916,87.8170610666275L1308.696768203125,120.81475389003754L1309.5526458072916,103.11204874515533L1311.2032669010418,95.46037530899048L1312.3036809635416,118.12785732746124L1312.8538879947916,87.07839596271515L1313.0984244531248,87.94887566566467L1314.3211067447917,79.77861762046814L1314.5045090885417,71.47308444976807L1317.2555442447917,67.82016170024872L1321.5960663802084,56.06421399116516L1322.5742122135416,61.24403786659241L1322.7576145572916,75.78296792507172L1323.8580286197916,70.5323156118393L1324.2859674218748,106.7380063533783L1326.7313320052083,117.74571633338928L1328.320818984375,79.68361043930054L1330.521647109375,91.6310555934906L1330.6439153385418,89.88047862052917L1330.888451796875,106.55895781517029L1334.6787669010416,86.51585817337036L1335.290108046875,82.65040516853333L1335.656912734375,96.14160466194153L1336.5127903385417,112.36005854606628L1338.5913502343749,82.25195026397705L1339.5694960677083,80.39261388778687L1340.2419713281251,135.72665679454803L1342.9318723697918,93.95064198970795L1343.8488840885418,83.50034642219543L1343.910018203125,103.38498091697693L1344.1545546614582,114.45569944381714L1344.9492981510416,99.24569690227509" style="fill: none;" fill="none"></path></g></g></g></g></g><g><g opacity="0.847663"><span fill="rgb(0, 0, 0)" stroke="none" stroke-width="1px">Alt + Scroll to Zoom</span></g></g></g><g transform="translate(30, 377)" clip-path="url(#clip_1)"><clipPath id="clip_1"><rect width="1467" height="23"></rect></clipPath><g><g><line x1="0" y1="0" x2="0" y2="5" style="visibility: inherit;" fill="rgb(0, 0, 0)" stroke="rgb(204, 204, 204)" stroke-width="1px"></line><line x1="122.26822916666666" y1="0" x2="122.26822916666666" y2="5" style="visibility: inherit;" fill="rgb(0, 0, 0)" stroke="rgb(204, 204, 204)" stroke-width="1px"></line><line x1="244.53645833333331" y1="0" x2="244.53645833333331" y2="5" style="visibility: inherit;" fill="rgb(0, 0, 0)" stroke="rgb(204, 204, 204)" stroke-width="1px"></line><line x1="366.8046875" y1="0" x2="366.8046875" y2="5" style="visibility: inherit;" fill="rgb(0, 0, 0)" stroke="rgb(204, 204, 204)" stroke-width="1px"></line><line x1="489.07291666666663" y1="0" x2="489.07291666666663" y2="5" style="visibility: inherit;" fill="rgb(0, 0, 0)" stroke="rgb(204, 204, 204)" stroke-width="1px"></line><line x1="611.3411458333334" y1="0" x2="611.3411458333334" y2="5" style="visibility: inherit;" fill="rgb(0, 0, 0)" stroke="rgb(204, 204, 204)" stroke-width="1px"></line><line x1="733.609375" y1="0" x2="733.609375" y2="5" style="visibility: inherit;" fill="rgb(0, 0, 0)" stroke="rgb(204, 204, 204)" stroke-width="1px"></line><line x1="855.8776041666667" y1="0" x2="855.8776041666667" y2="5" style="visibility: inherit;" fill="rgb(0, 0, 0)" stroke="rgb(204, 204, 204)" stroke-width="1px"></line><line x1="978.1458333333333" y1="0" x2="978.1458333333333" y2="5" style="visibility: inherit;" fill="rgb(0, 0, 0)" stroke="rgb(204, 204, 204)" stroke-width="1px"></line><line x1="1100.4140625" y1="0" x2="1100.4140625" y2="5" style="visibility: inherit;" fill="rgb(0, 0, 0)" stroke="rgb(204, 204, 204)" stroke-width="1px"></line><line x1="1222.6822916666667" y1="0" x2="1222.6822916666667" y2="5" style="visibility: inherit;" fill="rgb(0, 0, 0)" stroke="rgb(204, 204, 204)" stroke-width="1px"></line><line x1="1344.9505208333333" y1="0" x2="1344.9505208333333" y2="5" style="visibility: inherit;" fill="rgb(0, 0, 0)" stroke="rgb(204, 204, 204)" stroke-width="1px"></line><line x1="1467.21875" y1="0" x2="1467.21875" y2="5" style="visibility: inherit;" fill="rgb(0, 0, 0)" stroke="rgb(204, 204, 204)" stroke-width="1px"></line></g><g transform="translate(0, 8)"><text x="0" y="0" dx="0em" dy="0.95em" style="text-anchor: middle; visibility: hidden; font-family: Roboto, sans-serif; font-size: 12px; font-weight: 200;" fill="rgb(255, 255, 255)" stroke="none" stroke-width="1px">-100k</text><text x="122.26822916666666" y="0" dx="0em" dy="0.95em" style="text-anchor: middle; visibility: inherit; font-family: Roboto, sans-serif; font-size: 12px; font-weight: 200;" fill="rgb(255, 255, 255)" stroke="none" stroke-width="1px">0</text><text x="244.53645833333331" y="0" dx="0em" dy="0.95em" style="text-anchor: middle; visibility: inherit; font-family: Roboto, sans-serif; font-size: 12px; font-weight: 200;" fill="rgb(255, 255, 255)" stroke="none" stroke-width="1px">100k</text><text x="366.8046875" y="0" dx="0em" dy="0.95em" style="text-anchor: middle; visibility: inherit; font-family: Roboto, sans-serif; font-size: 12px; font-weight: 200;" fill="rgb(255, 255, 255)" stroke="none" stroke-width="1px">200k</text><text x="489.07291666666663" y="0" dx="0em" dy="0.95em" style="text-anchor: middle; visibility: inherit; font-family: Roboto, sans-serif; font-size: 12px; font-weight: 200;" fill="rgb(255, 255, 255)" stroke="none" stroke-width="1px">300k</text><text x="611.3411458333334" y="0" dx="0em" dy="0.95em" style="text-anchor: middle; visibility: inherit; font-family: Roboto, sans-serif; font-size: 12px; font-weight: 200;" fill="rgb(255, 255, 255)" stroke="none" stroke-width="1px">400k</text><text x="733.609375" y="0" dx="0em" dy="0.95em" style="text-anchor: middle; visibility: inherit; font-family: Roboto, sans-serif; font-size: 12px; font-weight: 200;" fill="rgb(255, 255, 255)" stroke="none" stroke-width="1px">500k</text><text x="855.8776041666667" y="0" dx="0em" dy="0.95em" style="text-anchor: middle; visibility: inherit; font-family: Roboto, sans-serif; font-size: 12px; font-weight: 200;" fill="rgb(255, 255, 255)" stroke="none" stroke-width="1px">600k</text><text x="978.1458333333333" y="0" dx="0em" dy="0.95em" style="text-anchor: middle; visibility: inherit; font-family: Roboto, sans-serif; font-size: 12px; font-weight: 200;" fill="rgb(255, 255, 255)" stroke="none" stroke-width="1px">700k</text><text x="1100.4140625" y="0" dx="0em" dy="0.95em" style="text-anchor: middle; visibility: inherit; font-family: Roboto, sans-serif; font-size: 12px; font-weight: 200;" fill="rgb(255, 255, 255)" stroke="none" stroke-width="1px">800k</text><text x="1222.6822916666667" y="0" dx="0em" dy="0.95em" style="text-anchor: middle; visibility: inherit; font-family: Roboto, sans-serif; font-size: 12px; font-weight: 200;" fill="rgb(255, 255, 255)" stroke="none" stroke-width="1px">900k</text><text x="1344.9505208333333" y="0" dx="0em" dy="0.95em" style="text-anchor: middle; visibility: inherit; font-family: Roboto, sans-serif; font-size: 12px; font-weight: 200;" fill="rgb(255, 255, 255)" stroke="none" stroke-width="1px">1M</text><text x="1467.21875" y="0" dx="0em" dy="0.95em" style="text-anchor: middle; visibility: hidden; font-family: Roboto, sans-serif; font-size: 12px; font-weight: 200;" fill="rgb(255, 255, 255)" stroke="none" stroke-width="1px">1.1M</text></g><line x1="0" y1="0" x2="1467.21875" y2="0" fill="rgb(0, 0, 0)" stroke="rgb(204, 204, 204)" stroke-width="1px"></line></g></g></g></g></svg>