<svg viewBox="0 0 1498 400" xmlns="http://www.w3.org/2000/svg"><g><g><g><g><g><line x1="61.953125" y1="377" x2="56.953125" y2="377" style="visibility: inherit;" fill="rgb(0, 0, 0)" stroke="rgb(204, 204, 204)" stroke-width="1px"></line><line x1="61.953125" y1="339.3" x2="56.953125" y2="339.3" style="visibility: inherit;" fill="rgb(0, 0, 0)" stroke="rgb(204, 204, 204)" stroke-width="1px"></line><line x1="61.953125" y1="301.6" x2="56.953125" y2="301.6" style="visibility: inherit;" fill="rgb(0, 0, 0)" stroke="rgb(204, 204, 204)" stroke-width="1px"></line><line x1="61.953125" y1="263.9" x2="56.953125" y2="263.9" style="visibility: inherit;" fill="rgb(0, 0, 0)" stroke="rgb(204, 204, 204)" stroke-width="1px"></line><line x1="61.953125" y1="226.2" x2="56.953125" y2="226.2" style="visibility: inherit;" fill="rgb(0, 0, 0)" stroke="rgb(204, 204, 204)" stroke-width="1px"></line><line x1="61.953125" y1="188.49999999999997" x2="56.953125" y2="188.49999999999997" style="visibility: inherit;" fill="rgb(0, 0, 0)" stroke="rgb(204, 204, 204)" stroke-width="1px"></line><line x1="61.953125" y1="150.79999999999995" x2="56.953125" y2="150.79999999999995" style="visibility: inherit;" fill="rgb(0, 0, 0)" stroke="rgb(204, 204, 204)" stroke-width="1px"></line><line x1="61.953125" y1="113.10000000000002" x2="56.953125" y2="113.10000000000002" style="visibility: inherit;" fill="rgb(0, 0, 0)" stroke="rgb(204, 204, 204)" stroke-width="1px"></line><line x1="61.953125" y1="75.39999999999998" x2="56.953125" y2="75.39999999999998" style="visibility: inherit;" fill="rgb(0, 0, 0)" stroke="rgb(204, 204, 204)" stroke-width="1px"></line><line x1="61.953125" y1="37.69999999999999" x2="56.953125" y2="37.69999999999999" style="visibility: inherit;" fill="rgb(0, 0, 0)" stroke="rgb(204, 204, 204)" stroke-width="1px"></line><line x1="61.953125" y1="0" x2="56.953125" y2="0" style="visibility: inherit;" fill="rgb(0, 0, 0)" stroke="rgb(204, 204, 204)" stroke-width="1px"></line></g><g transform="translate(51.953125, 0)"><text x="0" y="377" dx="0em" dy="0.3em" style="text-anchor: end; visibility: hidden; font-family: Roboto, sans-serif; font-size: 12px; font-weight: 200;" fill="rgb(255, 255, 255)" stroke="none" stroke-width="1px">-5e-3</text><text x="0" y="339.3" dx="0em" dy="0.3em" style="text-anchor: end; visibility: inherit; font-family: Roboto, sans-serif; font-size: 12px; font-weight: 200;" fill="rgb(255, 255, 255)" stroke="none" stroke-width="1px">0</text><text x="0" y="301.6" dx="0em" dy="0.3em" style="text-anchor: end; visibility: inherit; font-family: Roboto, sans-serif; font-size: 12px; font-weight: 200;" fill="rgb(255, 255, 255)" stroke="none" stroke-width="1px">5e-3</text><text x="0" y="263.9" dx="0em" dy="0.3em" style="text-anchor: end; visibility: inherit; font-family: Roboto, sans-serif; font-size: 12px; font-weight: 200;" fill="rgb(255, 255, 255)" stroke="none" stroke-width="1px">0.01</text><text x="0" y="226.2" dx="0em" dy="0.3em" style="text-anchor: end; visibility: inherit; font-family: Roboto, sans-serif; font-size: 12px; font-weight: 200;" fill="rgb(255, 255, 255)" stroke="none" stroke-width="1px">0.015</text><text x="0" y="188.49999999999997" dx="0em" dy="0.3em" style="text-anchor: end; visibility: inherit; font-family: Roboto, sans-serif; font-size: 12px; font-weight: 200;" fill="rgb(255, 255, 255)" stroke="none" stroke-width="1px">0.02</text><text x="0" y="150.79999999999995" dx="0em" dy="0.3em" style="text-anchor: end; visibility: inherit; font-family: Roboto, sans-serif; font-size: 12px; font-weight: 200;" fill="rgb(255, 255, 255)" stroke="none" stroke-width="1px">0.025</text><text x="0" y="113.10000000000002" dx="0em" dy="0.3em" style="text-anchor: end; visibility: inherit; font-family: Roboto, sans-serif; font-size: 12px; font-weight: 200;" fill="rgb(255, 255, 255)" stroke="none" stroke-width="1px">0.03</text><text x="0" y="75.39999999999998" dx="0em" dy="0.3em" style="text-anchor: end; visibility: inherit; font-family: Roboto, sans-serif; font-size: 12px; font-weight: 200;" fill="rgb(255, 255, 255)" stroke="none" stroke-width="1px">0.035</text><text x="0" y="37.69999999999999" dx="0em" dy="0.3em" style="text-anchor: end; visibility: inherit; font-family: Roboto, sans-serif; font-size: 12px; font-weight: 200;" fill="rgb(255, 255, 255)" stroke="none" stroke-width="1px">0.04</text><text x="0" y="0" dx="0em" dy="0.3em" style="text-anchor: end; visibility: hidden; font-family: Roboto, sans-serif; font-size: 12px; font-weight: 200;" fill="rgb(255, 255, 255)" stroke="none" stroke-width="1px">0.045</text></g><line x1="61.953125" y1="0" x2="61.953125" y2="377" fill="rgb(0, 0, 0)" stroke="rgb(204, 204, 204)" stroke-width="1px"></line></g></g><g transform="translate(61, 0)" clip-path="url(#clip_0)"><clipPath id="clip_0"><rect width="1436" height="377"></rect></clipPath><g><g><g><line x1="0" y1="0" x2="0" y2="377" fill="rgb(0, 0, 0)" stroke="rgb(189, 189, 189)" stroke-width="1px" opacity="0.25"></line><line x1="119.67057291666666" y1="0" x2="119.67057291666666" y2="377" fill="rgb(0, 0, 0)" stroke="rgb(189, 189, 189)" stroke-width="1px" opacity="0.25"></line><line x1="239.34114583333331" y1="0" x2="239.34114583333331" y2="377" fill="rgb(0, 0, 0)" stroke="rgb(189, 189, 189)" stroke-width="1px" opacity="0.25"></line><line x1="359.01171875" y1="0" x2="359.01171875" y2="377" fill="rgb(0, 0, 0)" stroke="rgb(189, 189, 189)" stroke-width="1px" opacity="0.25"></line><line x1="478.68229166666663" y1="0" x2="478.68229166666663" y2="377" fill="rgb(0, 0, 0)" stroke="rgb(189, 189, 189)" stroke-width="1px" opacity="0.25"></line><line x1="598.3528645833334" y1="0" x2="598.3528645833334" y2="377" fill="rgb(0, 0, 0)" stroke="rgb(189, 189, 189)" stroke-width="1px" opacity="0.25"></line><line x1="718.0234375" y1="0" x2="718.0234375" y2="377" fill="rgb(0, 0, 0)" stroke="rgb(189, 189, 189)" stroke-width="1px" opacity="0.25"></line><line x1="837.6940104166667" y1="0" x2="837.6940104166667" y2="377" fill="rgb(0, 0, 0)" stroke="rgb(189, 189, 189)" stroke-width="1px" opacity="0.25"></line><line x1="957.3645833333333" y1="0" x2="957.3645833333333" y2="377" fill="rgb(0, 0, 0)" stroke="rgb(189, 189, 189)" stroke-width="1px" opacity="0.25"></line><line x1="1077.03515625" y1="0" x2="1077.03515625" y2="377" fill="rgb(0, 0, 0)" stroke="rgb(189, 189, 189)" stroke-width="1px" opacity="0.25"></line><line x1="1196.7057291666667" y1="0" x2="1196.7057291666667" y2="377" fill="rgb(0, 0, 0)" stroke="rgb(189, 189, 189)" stroke-width="1px" opacity="0.25"></line><line x1="1316.3763020833333" y1="0" x2="1316.3763020833333" y2="377" fill="rgb(0, 0, 0)" stroke="rgb(189, 189, 189)" stroke-width="1px" opacity="0.25"></line><line x1="1436.046875" y1="0" x2="1436.046875" y2="377" fill="rgb(0, 0, 0)" stroke="rgb(189, 189, 189)" stroke-width="1px" opacity="0.25"></line></g><g><line x1="0" y1="377" x2="1436.046875" y2="377" fill="rgb(0, 0, 0)" stroke="rgb(189, 189, 189)" stroke-width="1px" opacity="0.25"></line><line x1="0" y1="339.3" x2="1436.046875" y2="339.3" fill="rgb(0, 0, 0)" stroke="rgb(189, 189, 189)" stroke-width="1px" opacity="0.25"></line><line x1="0" y1="301.6" x2="1436.046875" y2="301.6" fill="rgb(0, 0, 0)" stroke="rgb(189, 189, 189)" stroke-width="1px" opacity="0.25"></line><line x1="0" y1="263.9" x2="1436.046875" y2="263.9" fill="rgb(0, 0, 0)" stroke="rgb(189, 189, 189)" stroke-width="1px" opacity="0.25"></line><line x1="0" y1="226.2" x2="1436.046875" y2="226.2" fill="rgb(0, 0, 0)" stroke="rgb(189, 189, 189)" stroke-width="1px" opacity="0.25"></line><line x1="0" y1="188.49999999999997" x2="1436.046875" y2="188.49999999999997" fill="rgb(0, 0, 0)" stroke="rgb(189, 189, 189)" stroke-width="1px" opacity="0.25"></line><line x1="0" y1="150.79999999999995" x2="1436.046875" y2="150.79999999999995" fill="rgb(0, 0, 0)" stroke="rgb(189, 189, 189)" stroke-width="1px" opacity="0.25"></line><line x1="0" y1="113.10000000000002" x2="1436.046875" y2="113.10000000000002" fill="rgb(0, 0, 0)" stroke="rgb(189, 189, 189)" stroke-width="1px" opacity="0.25"></line><line x1="0" y1="75.39999999999998" x2="1436.046875" y2="75.39999999999998" fill="rgb(0, 0, 0)" stroke="rgb(189, 189, 189)" stroke-width="1px" opacity="0.25"></line><line x1="0" y1="37.69999999999999" x2="1436.046875" y2="37.69999999999999" fill="rgb(0, 0, 0)" stroke="rgb(189, 189, 189)" stroke-width="1px" opacity="0.25"></line><line x1="0" y1="0" x2="1436.046875" y2="0" fill="rgb(0, 0, 0)" stroke="rgb(189, 189, 189)" stroke-width="1px" opacity="0.25"></line></g></g></g><g><g><line x1="0" y1="339.3" x2="1436.046875" y2="339.3" fill="rgb(0, 0, 0)" stroke="rgb(153, 153, 153)" stroke-width="1.5px"></line></g></g><g><g><line x1="119.67057291666666" y1="0" x2="119.67057291666666" y2="377" fill="rgb(0, 0, 0)" stroke="rgb(153, 153, 153)" stroke-width="1.5px"></line></g></g><g><g><g><g><g><path stroke="rgb(255, 112, 67)" stroke-width="2px" d="M120.80624665364583,49.0492414712906L122.5414699609375,134.25463591068984L123.43899925781251,202.60678895115848L123.49883454427084,109.18340254873038L125.05455199218748,172.44370829612012L125.89224600260417,208.40599369555707L126.13158714843749,245.75515810698266L127.3881281640625,183.64596896171565L129.5421984765625,220.35087716132398L130.02088076822918,196.57366160601373L131.1577512109375,229.9867720931768L131.8757746484375,250.13645286038513L134.32902139322917,230.72832752317186L135.22655069010418,246.9828725636005L136.60276227864583,249.5160650119185L136.78226813802084,226.6084612190723L138.81666787760417,246.88221674710508L141.62892634114584,277.07100557461376L142.8256320703125,220.48772525340314L143.78299665364582,145.7251014217734L144.56085537760416,146.84350874572988L145.8772316796875,209.2460561573505L147.55261970052084,225.07651817351575L148.15097256510415,271.43541042059655L148.50998428385415,258.9170542389154L150.24520759114583,261.70484256297345L151.6214191796875,258.41340298131104L151.92059561197917,286.7735479429364L152.04026618489584,276.13610867708917L152.99763076822916,216.82681408077474L153.35664248697915,287.0152616437524L155.27137165364582,263.26083654835816L155.3910422265625,241.19206633716817L157.84428897135416,278.65414025560017L158.2033006901042,272.30978321582074L158.2631359765625,277.0780628576874L159.10082998697916,294.9871510483324L160.11802985677082,244.48208041787143L162.87045303385415,287.65002036765213L165.4433703515625,268.22104620113964L166.10155850260415,281.26705542504783L167.83678180989583,220.52290633618827L171.0080519921875,269.168948161602L171.5465695703125,284.33730009309943L172.74327529947917,284.6146302513778L176.09405134114584,295.98695037253196L179.50466266927083,299.14756688587363L180.46202725260417,289.42331547215576L181.12021540364586,275.84306640848513L181.7784035546875,204.34700962454076L182.91527399739584,243.69581481739874L183.81280329427082,296.67351517193015L184.17181501302082,285.80324174202974L186.08654417968748,283.45473944507535L186.20621475260418,202.24503472745414L187.04390876302082,286.6145554307848L187.46275576822916,242.40087710618968L188.5996262109375,291.61922596693034L188.65946149739582,284.4153726037591L189.37748493489582,265.07736014500256L189.97583779947917,299.5788300812244L190.0955083723958,273.1224943168461L190.5741906640625,257.681229173392L192.60859040364582,285.76529392339285L194.64299014322916,293.35683439224954L194.76266071614583,249.4968874596059L194.94216657552084,280.6694159034639L195.1815077213542,289.2904805514961L195.5405194401042,292.27821469604964L195.77986058593748,265.6589504919946L199.0109660546875,299.7213169775903L200.20767178385415,304.21952387616034L202.00273037760417,297.8651321522891L202.06256566406253,292.1711300808936L204.51581240885415,288.1436931185424L206.9092238671875,277.5111272402107L206.96905915364584,292.6208615891635L209.12312946614583,281.606310608983L209.6018117578125,296.95226380899544L210.08049404947917,296.40546832531686L210.25999990885416,280.18074645027514L212.35423493489583,300.2935537911951L212.5337407942708,302.5914964482188L213.3714348046875,284.39247681125994L213.5509406640625,203.58041312843557L214.56814053385418,309.24227299466725L215.22632868489583,285.27376644611354L217.08122256510416,297.9332226451486L217.55990485677083,292.17277678027745L219.6541398828125,305.80818149559195L220.5516691796875,286.7879925511777L221.56886904947916,299.7287534579634L221.68853962239584,288.61111698970194L222.10738662760417,299.5713058236986L226.05651553385417,281.8606501754373L230.24498558593748,293.48574040755625L231.02284430989585,297.7759224765002L231.44169131510418,267.3190552026033L233.35642048177084,284.32773589454587L233.53592634114582,304.2313141033053L233.9547733463542,307.4023164093494L235.8096672265625,289.7392675776034L237.00637295572918,308.57398690953846L237.06620824218749,295.4948751658201L238.1432433984375,265.7887413010001L243.58825446614583,297.2886820353567L244.12677204427084,304.9290827784687L244.72512490885416,300.8601939335465L245.3833130598958,307.62180142402644L251.90535928385415,299.5285759057849L253.70041787760417,293.558265402168L258.4872407942708,297.60601750873025L260.88065225260414,256.4573207341134L262.97488727864584,299.6754551708698L265.48796930989585,315.4943516694009L265.78714574218753,294.4252965163439L266.56500446614587,297.363239948824L267.0436867578125,279.1657406121492L267.2231926171875,300.0683035731315L268.41989834635416,276.78628458008166L269.4969335026042,282.6702328987419L270.33462751302085,256.08825642913575L271.1124862369792,306.4264591813087L273.9247447005208,249.6749486804008L273.98457998697916,304.6120984137058L275.2411210026042,265.11648066639896L276.91650902343747,294.6836036100983L277.39519131510417,310.32804126217957L277.8738736067708,295.9794401593506L280.3271203515625,297.61849941983814L280.86563792968747,299.13482515439387L281.76316722656253,304.9506092473864L282.3016848046875,298.2730501361191L283.31888467447914,277.4028172560036L283.67789639322916,296.4262925770133L284.4557551171875,305.9031563747674L284.51559040364583,289.3868352875113L284.57542569010417,310.2627350606024L285.1737785546875,299.6809675760567L285.3532844140625,314.2607368325814L286.3704842838541,240.4566272191703L287.9860370182292,311.0672003759071L289.3024133203125,293.84106934368606L289.9007661848958,311.80329255592073L290.9179660546875,308.35007441528137L294.5080832421875,302.4451052241027L296.3629771223958,303.2923443458974L296.54248298177083,305.7755003061145L296.9613299869792,306.9820042915642L297.61951813802085,286.26223549544807L301.26947061197916,312.506176883541L304.20139964843753,279.0913336753845L304.2612349348958,304.5244371268898L305.39810537760417,310.85439520254727L305.4579406640625,304.90615889728065L305.51777595052084,315.1293356467038L306.41530524739585,307.07237964794035L307.9111874088542,309.87611005846406L309.5865754296875,316.18331102952357L310.7234458723958,318.1167818821967L311.1422928776042,295.00834045298393L312.2193280338542,314.19611880388106L312.39883389322915,295.0633345946669L313.6553749088542,307.35095975287254L315.0914217838542,305.96884528473015L315.27092764322913,272.9445033177733L317.54466852864584,302.0816446125507L319.57906826822915,299.9418377626687L320.5364328515625,301.6778837546706L323.4085266015625,302.5178443949669L326.8191379296875,300.33776538744564L328.13551423177086,284.6150796703994L328.19534951822914,313.21581829637284L328.6141965234375,289.75885592699046L329.15271410156254,306.29780596420164L330.70843154947914,294.2558725673705L333.10184300781253,265.850108063966L333.2813488671875,311.79791532754894L335.13624274739584,286.5355349268764L336.0936073307292,304.06036985404785L338.36734821614584,306.6544866684824L338.54685407552086,300.3780867002904L338.6665246484375,302.4855213362723L338.78619522135415,303.2236359018832L338.96570108072916,311.3714623201638L339.20504222656245,316.07075087558474L339.3845480859375,305.06215294189747L340.5214185286458,284.4774380728602L341.8377948307292,310.1747928868979L344.7697238671875,299.0575531713664L346.0262648828125,281.1755775876343L349.9753937890625,296.19426245167847L350.0950643619792,313.339884279482L351.2319348046875,286.58922996670003L353.2064992578125,293.88493334241207L353.7450168359375,302.63734421059485L353.9843579817708,275.5995796091854L354.34336970052084,281.97565580084915L355.06139313802083,301.7524592235684L355.24089899739585,296.91955453082915L357.57447516927084,306.17888196669514L359.78838076822916,251.17546750530596L359.9080513411458,313.0435503676533L360.4465689192708,320.67819117400796L361.1047570703125,313.7413049984723L361.46376878906244,313.1663909817114L361.8826157942708,299.57350025251503L364.0965213932292,309.3381572451442L365.5924035546875,302.98375849910076L365.95141527343753,299.34244972020383L366.3104269921875,318.3914927702397L366.48993285156246,297.53156141676004L367.8063091536458,314.12596554793413L369.9005441796875,311.8107623916119L370.5587323307292,311.9626309100538L372.65296735677083,300.4005365848541L374.4480259505208,313.0909868964925L378.09797842447915,317.2745460581034L378.69633128906247,301.18640192151065L382.70529548177086,308.2813870377838L385.57738923177084,303.04209519475694L386.23557738281255,317.4227946467697L390.4838827213542,310.8658834762871L391.08223558593744,304.9405745632946L391.32157673177085,219.23221703916784L392.8174588932292,295.9241019312292L395.5100467838542,305.6084638956934L395.6895526432292,316.0419073032215L397.9034582421875,311.5421449935063L400.11736384114585,311.9704167434945L400.35670498697914,292.46769396886225L400.4763755598958,307.85347692966457L400.83538727864584,316.59647457599635L401.3739048567709,291.79058452434833L402.7501164453125,310.1177272044122L403.16896345052083,301.92330867350097L405.50253962239583,290.07700246125455L405.5623749088541,317.1470830991864L407.3574335026042,297.7159461036324L408.73364509114583,279.96279929131265L408.8533156640625,314.0507019061595L409.03282152343746,312.7607639815658L409.0926568098958,311.53547744099046L409.5713391015625,308.77622898034747L411.84507998697916,305.6601821940392L413.52046800781244,310.80478355586524L414.65733845052085,309.08076303377743L415.3155266015625,311.29249623809005L415.85404417968755,302.69385865256186L417.70893805989584,312.0353665698319L418.3671262109375,305.32134834043677L421.7179022526042,307.4145665887743L422.8547726953125,292.9099398415535L423.6326314192708,233.37387472689147L424.17114899739585,252.99968740269537L424.29081957031246,311.58209939785297L426.80390160156253,316.03093691468234L427.0432427473958,314.2651783565059L427.2825838932291,313.15947940871115L427.94077204427083,318.7344644388184L428.12027790364584,283.54988636747L428.1801131901042,319.7223243147135L430.0948423567708,308.9269915066659L430.87270108072914,307.83155721910293L431.94973623697916,309.84430137388404L432.36858324218747,317.7577066171914L433.14644196614586,317.831746645458L434.04397126302086,313.05024249777193L434.58248884114585,312.7450975153595L434.76199470052086,302.9630044691264L436.5570532942708,318.6910094816238L437.9931001692708,317.9727711744606L438.1726060286458,307.6807314932346L438.29227660156255,314.4377061055973L438.53161774739584,314.3779386423528L440.5660174869792,294.2192203395068L441.0446997786458,320.92544185761363L443.0192642317708,308.4415382083505L445.5323462630209,302.2500117246061L446.0708638411458,315.2070746041834L446.3700402734375,311.81302001997824L449.0626281640625,314.55358423590656L449.36180459635415,313.409245785512L450.0798280338542,317.6106553088873L452.8322512109375,303.1787712436169L458.81577985677086,310.74679270219053L462.58540290364584,314.2753973726183L464.2607909244792,307.9393229849636L465.6370025130208,307.978773548454L468.6886021223959,302.49044739007945L470.7230018619791,305.6930319156497L471.5008605859375,257.74857180491085L475.62949535156247,317.6769551478326L476.10817764322917,304.2931794404983L476.58685993489587,317.8093020275235L477.6040598046875,314.4866278238594L478.56142438802084,303.301480191946L479.27944782552083,315.8046877926215L481.4335181380208,305.89594109281893L481.9122004296875,320.32096976246686L483.40808259114584,318.8548209594563L485.38264704427087,310.9520929289981L485.5023176171875,301.91147631332274L486.6990233463542,310.4084960447624L486.9981997786458,317.0991567738354L487.1178703515625,318.67642267439516L487.23754092447916,308.2933457970619L492.20386970052084,309.3486308149993L493.28090485677086,297.8431597754359L495.43497516927084,317.1656953666359L495.5546457421875,314.38976222481574L496.6915161848958,318.5299068067223L498.6062453515625,301.63773799613114L498.7259159244792,311.8784175097942L500.16196279947917,321.4109162224457L500.2217980859375,317.80701279938216L500.5209745182292,314.9546046910807L500.8201509505208,318.2945885492489L507.04302074218754,314.0558860247954L508.1200558984375,312.46398942843075L510.3339614973958,314.4803359575569L510.5134673567708,319.6291927557439L511.41099665364584,319.4834071939811L511.71017308593747,316.90878568515177L512.4880318098958,307.1435212746262L512.7872082421875,317.06743411086495L513.7445728255209,317.2555581044405L514.0437492578125,225.05267789885397L514.5822668359375,315.599422676675L515.5396314192708,310.1088652230799L517.5740311588542,315.72332714982326L519.0100780338541,318.4651553567499L521.8223364973958,320.05401837471874L522.4206893619792,316.3711400918662L522.6600305078125,320.56573459710927L523.6173950911459,315.59274634644385L524.2755832421875,313.16502516921605L526.7288299869792,317.3703916866332L529.1222414453125,311.5598584229126L529.6009237369792,314.92119670677926L530.1394413151042,307.4598244886845L531.0968058984375,311.54130408838387L533.5500526432292,315.2740099497139L533.7295585026042,318.54285569228233L534.3877466536458,316.16147382948543L537.0803345442708,311.149045548588L538.0376991276041,314.14374568797643L538.3368755598958,311.893506402336L538.4565461328125,313.6701949715614L539.6532518619792,317.67285771034653L540.3114400130208,315.8022528544068L541.8073221744792,305.12856513559814L545.5769452213542,312.0712568920105L545.7564510807291,313.7475406873971L546.1154627994792,316.63833374455567L548.3892036848958,312.6296582708135L549.2268976953125,315.3147122154012L549.3465682682291,317.37946433313186L550.9621210026041,314.04057066719975L552.0391561588542,314.8529253929853L553.7145441796874,312.8677678417414L554.9710851953125,320.3297176335007L557.0054849348959,318.66914945952595L558.5612023828126,272.5914144545793L558.8005435286458,311.5941950894892L559.6980728255209,318.28385867010803L560.5357668359376,315.70665651299055L563.9463781640625,316.72694302462037L564.6045663151042,313.4183500317856L564.6644016015625,314.6064822591841L566.3397896223959,308.4538726538419L566.5791307682292,314.88133885730053L566.6988013411458,319.3678907055408L567.4168247786458,310.23078768812115L568.8528716536458,309.3258438661694L569.5708950911459,308.14113670326765L570.0495773828126,317.4610584631562L570.4085891015625,306.0836823780089L571.0667772526042,319.54799186736346L571.5454595442709,317.8825309948995L571.6651301171875,317.594592089951L574.0585415755208,315.5028239201754L574.5970591536459,313.79178388342257L574.7167297265624,317.25155546627934L574.8962355859375,314.1264641221612L576.7511294661458,315.3877094510942L577.1101411848958,317.5231976650655L578.0675057682292,317.90776341520245L582.0764699609375,315.5488472368568L582.2559758203125,314.83988697472955L583.8116932682292,309.66491647362704L586.0854341536458,286.14240563772614L586.1452694401041,318.4823245678097L587.7009868880208,318.8672537153587L588.7181867578124,318.1354081939906L588.9575279036459,321.1542259838432L589.4362101953125,317.41935378238554L589.7353866276042,322.106667778641L589.7952219140625,319.9052115233615L590.1542336328125,317.02788348142053L592.1287980859374,316.2971860852092L592.4878098046876,316.989121090807L593.9836919661459,309.6591056261211L594.1631978255208,315.28704485688354L597.5738091536458,315.78321047890927L601.1639263411458,315.3306665906682L601.6426086328124,226.19533980563278L603.0786555078125,313.33577279765154L604.1556906640625,307.3486073251813L605.7114081119792,308.4552033554762L607.0277844140625,308.65417309403415L608.1646548567708,318.3099741285667L608.2244901432291,317.759509559907L609.8998781640626,318.17185151223094L611.3359250390625,317.2039574274793L612.1137837630208,314.01251884475346L613.6695012109375,309.973051145859L614.9858775130209,303.7910730607807L615.3448892317708,314.23829397018994L615.8235715234375,306.9460226811468L616.1227479557291,321.8171875068918L619.4735239973959,313.5508812434971L620.1317121484375,311.05061576068397L620.9694061588542,313.9068386640399L622.1661118880209,320.2837926272303L623.0038058984375,315.5593541620299L623.3029823307292,309.6764293249696L627.7906288151041,320.6164364360273L629.5856874088541,313.2201931096613L630.1242049869792,318.36025463715197L631.2012401432291,319.13412785921247L631.5602518619792,313.83495619818564L632.0987694401041,307.90629068687554L635.3897101953125,321.3207251980901L635.9282277734375,313.5619358981028L637.8429569401042,322.02857069037856L638.0822980859375,315.74914943259205L639.9371919661459,318.8636829407886L640.2962036848959,319.25779708959163L641.3732388411458,320.2521823190153L641.7322505598959,316.15507663059975L643.4076385807292,313.34022485483433L643.5273091536458,320.364243898727L644.8436854557292,313.7858799921348L644.9633560286459,311.1665746459737L647.6559439192708,305.40688893124457L648.2542967838542,318.82064755838365L650.1690259505208,313.8745472051203L650.4682023828125,321.1039911193773L650.8870493880208,315.21249396558846L651.5452375390624,313.06312818378206L653.2804608463542,286.4977170184254L653.5198019921875,319.52776098921896L657.3492603255208,311.2986318610608L657.6484367578125,316.41446338333185L658.6058013411458,322.42599930446596L660.2213540755208,314.2800952058285L661.1787186588542,312.46127711441363L661.7172362369791,315.1487607305869L662.4352596744792,312.4722159031778L665.2475181380208,316.9264780480414L665.4868592838542,305.8280437096953L667.3417531640625,317.02436361759896L669.6154940494791,319.23808585219086L670.3933527734375,301.15325024649496L670.9318703515625,321.7436987191439L671.5302232161458,294.5546835504472L671.7695643619792,311.6168872389942L673.3252818098958,320.5644864059985L675.6588579817709,317.2459131509065L676.3768814192708,302.6489027060568L676.4965519921875,316.5565991710871L676.9153989973958,319.62266915775837L677.8129282942708,317.98405580520625L678.8899634505208,318.3660057961941L679.7276574609375,318.7623547513038L680.0866691796875,318.7415234774351L680.5055161848958,321.1463383289054L680.8046926171875,318.81705747283996L681.4030454817708,319.6518849052489L684.7538215234375,306.49932826235886L685.5316802473958,312.01127174142744L687.4464094140625,310.1506225701421L687.5660799869792,304.29337957240637L690.4381737369791,318.20702908392997L690.9766913151042,295.5832140922546L691.5152088932291,308.6824513815343L692.1135617578125,321.32038988936694L693.7291144921876,318.8163850998506L694.5668085026042,322.90961279366167L698.3962668359375,319.02430284135045L698.4561021223958,318.19569880906494L699.6528078515626,313.0462644372135L700.3708312890625,318.0548673897981L700.8495135807291,319.14178378246726L702.2855604557292,307.5029652036726L703.3027603255208,320.9422862932086L703.3625956119791,317.7559721406549L704.4396307682291,314.92423555180426L706.8928775130208,313.4527498979121L707.5510656640625,317.0906985674053L708.3289243880208,316.922765074484L709.1067831119792,320.9556705534458L710.1239829817708,316.4310304431244L711.7395357161458,311.9105369254946L712.3378885807291,315.30591870024796L713.0559120182292,304.7989092610776L713.1157473046875,318.44835480973126L714.9706411848958,323.9973402472213L715.0304764713542,319.06056358311326L715.0903117578125,321.5581343073398L715.6886646223959,319.23534369394184L716.4665233463542,319.63435756340624L716.8255350651041,318.92713177781553L717.3042173567708,314.7686294822022L717.6632290755209,315.1541678031906L721.8516991276042,313.45620305109765L723.4672518619791,308.86571603193875L725.3221457421874,318.1122841808945L725.6213221744792,315.216673913598L726.3393456119791,313.82178435865785L729.5106157942708,324.2778426717967L730.5278156640625,317.80711110979314L730.9466626692708,307.1715959191322L734.1777681380208,315.2848065394908L734.8359562890624,319.55442944373937L738.5457440494793,318.4398544702679L738.7252499088542,313.90453714709724L738.7850851953125,317.98693314027037L741.7170142317708,320.6497601542622L744.7087785546875,322.74852591864766L745.0677902734376,310.0186917541548L745.1276255598958,305.6165007717907L745.486637278646,320.67445186730475L748.0595545963542,319.56541738770903L749.0767544661459,324.5087387163192L751.0513189192709,319.06521050557495L751.6496717838542,313.363764931634L752.3676952213542,318.8954688033089L753.7439068098957,312.78691279534246L754.8209419661458,325.69495740178974L755.9578124088541,321.83357199020685L756.5561652734375,318.7219561945647L756.6758358463542,321.02255323268474L760.3856236067708,323.08024104516954L760.9839764713543,318.73086557555945L761.4028234765626,316.08488475270565L761.7019999088541,309.32960423938925L762.6593644921875,317.4876777624711L763.0782114973958,314.00841614063825L764.2150819401041,321.11107649113984L768.4633872786458,318.83541167546065L771.7543280338541,322.96429269313813L776.4813156640625,307.6587275166064L779.2337388411459,317.6649718109518L779.2935741276041,315.86866153702135L779.5927505598959,315.8945048863068L780.0714328515625,310.2783523716032L781.1484680078124,316.9784702111035L783.5418794661458,318.28495588451625L784.9779263411459,315.99984975829716L785.3369380598958,314.2635895900428L785.3967733463543,318.586013962701L787.4311730859375,318.6503704154864L788.0893612369791,318.3901936683804L790.363102122396,323.53116456717254L790.6024432682292,317.40689469333734L790.9614549869792,325.10522660166026L791.3803019921876,320.26924444194884L791.4401372786458,311.50741157419975L793.2351958723959,324.3221982225776L797.6630070703126,321.9651481864974L797.7228423567708,305.84619251377876L799.6974068098958,323.2875619020313L801.4924654036458,319.6643475053832L802.0908182682292,319.886367524229L802.3899947005208,322.3063625564799L804.4243944401043,313.0623276561498L804.7235708723957,321.5108153998852L804.8432414453126,320.1029172709212L805.5014295963541,318.96234270483257L805.6211001692709,272.36489322334523L809.390723216146,321.8805415445939L812.0234758203125,321.59450564831496L812.5021581119792,314.4338755106553L814.4767225651042,320.1992983400822L819.5627219140625,320.7110531844199L821.9561333723958,317.8925077460706L823.1528391015624,314.3870990660041L823.6913566796875,312.85722580570723L824.9478976953125,321.9866764109582L826.8027915755208,312.583896530047L826.9224621484375,320.4643870966509L827.1618032942707,317.48250768817957L828.4183443098958,319.0680685296655L828.5978501692707,319.77496251761914L828.8371913151042,319.1528173705563L829.7945558984375,320.1993123844266L830.3330734765625,320.3378036648035L830.6920851953124,319.6319191141054L832.9059907942708,318.7998935284093L834.2223670963541,318.9052717557177L835.0600611067708,314.47923347651954L835.9575904036458,320.327877824381L836.0772609765625,325.2425820456818L836.3764374088541,317.08676966205235L838.4706724348958,320.4834382498637L839.3682017317709,321.38889117930086L841.1632603255208,323.95133448597045L841.5222720442707,313.52021190635855L841.8214484765625,311.96779571771617L842.3001307682291,314.88687584009017L845.8304126692708,320.1694769302383L848.2238241276042,318.3255651064217L848.4631652734374,318.79834865052254L850.3180591536459,311.97985103186215L851.8139413151041,315.3101320035755L852.4721294661458,317.0323478274047L853.4294940494791,316.18697309233244L853.9680116276041,324.38647040929646L855.8229055078125,312.7864124655723L855.9425760807292,320.2763772133738L856.1819172265625,315.77238931152965L856.6605995182291,324.93029639190064L858.3958228255208,316.46868157498534L858.9343404036458,316.60709736701097L859.6523638411458,316.18792459666724L859.8917049869792,309.03991505801673L861.3277518619792,317.77223900258537L861.5670930078126,318.5384773679078L861.6867635807292,321.04706763587893L862.9433045963541,315.0016058452427L863.0031398828125,319.88446978218855L863.9006691796875,324.43083824887873L864.2596808984375,315.3602913796901L864.6186926171874,309.0169841546565L866.2342453515625,311.6638287046924L866.3539159244791,316.5694901237264L866.4735864973958,324.2155946262181L868.9866685286459,321.99120746757836L870.9013976953124,328.3613314905204L873.7136561588542,318.4010183468461L876.5259146223958,319.18544589374216L876.8250910546875,322.14046198241414L878.3808085026042,320.73739686347545L880.116031809896,324.15358357895167L884.5438430078126,325.63645217400045L885.0823605859374,319.7269413929433L888.4331366276042,324.2388871714473L889.0913247786459,319.4644596178085L891.6642420963542,321.32402737457306L891.9035832421874,319.5249521203339L892.9207831119791,326.6836520384066L894.2371594140625,319.3348935183138L895.9125474348957,317.5441816711798L896.1518885807292,324.77056391835214L897.4084295963542,322.1496329393238L898.1862883203125,319.31452570781113L899.0239823307293,322.5653244677931L899.2633234765625,319.26140473056586L899.7420057682292,306.47536509968336L899.8018410546875,313.4391110839322L900.4001939192708,317.5422470627352L900.4600292057293,311.2153629429638L902.8534406640624,319.8232118628919L903.0927818098958,318.09083495587106L908.8369693098957,315.9644439660012L910.1533456119791,325.2450468281284L911.1705454817708,320.4532429093495L911.5893924869791,320.12632392644883L912.1279100651042,325.34250228963793L912.5467570703125,320.72028734087945L913.2049452213541,318.63231816627086L915.7778625390624,327.61027769483627L918.4704504296876,322.5193889282644L920.8040266015626,322.8997273307294L922.5990851953126,315.02197365574534L924.8129907942708,316.38023731596763L928.8219549869791,324.15899591818453L929.3604725651041,325.8214118012227L929.4203078515626,299.86564368307586L930.4973430078124,317.41948018148537L930.9760252994793,315.0483068015426L932.0530604557291,323.1505698554218L932.7710838932292,305.37177104800935L934.8653189192709,321.46847345698626L936.0021893619792,315.8489204553887L936.1218599348958,311.77175949160005L936.3013657942709,314.176035391353L937.0792245182292,324.1760317079723L939.5923065494792,320.15186707787217L940.4300005598958,320.0798108132556L941.6267062890626,323.7679750362411L943.0029178776041,317.18102652411903L945.5758351953125,321.83930559381844L947.311058502604,316.20073128324L948.3880936588541,320.3127099324018L950.8413404036457,316.7198365863412L952.3970578515624,319.6191264718771L955.6879986067707,318.95753251686693L956.2265161848958,322.5121069356799L957.7822336328124,318.54570669420065L959.5174569401042,322.3998575128615L960.1756450911458,317.0320844959467L963.5264211328125,312.98713248055424L964.1846092838541,321.1145436886698L965.0223032942708,323.49622926041485L965.8001620182292,312.11629710458215L966.8771971744791,318.4237333184108L968.0140676171875,316.38760357461865L968.6722557682292,323.90513561498375L969.0312674869792,325.683059208747L969.749290924479,318.44674322120846L970.4074790755208,321.63081554528327L970.7664907942709,325.76321467123927L970.8263260807291,317.18747814483936L972.8607258203126,323.47559285182507L973.2795728255207,319.271054950729L978.3057368880209,314.4813260838389L978.6049133203126,318.83214109875263L979.0237603255208,324.65262565827L979.3229367578125,320.28956485278906L979.382772044271,319.6112511057407L981.2975012109375,312.3790685443207L981.3573364973957,308.36884819269176L981.6565129296874,316.9303261984139L982.4942069401042,324.44695764519275L982.9728892317709,324.88336107060314L983.0327245182292,316.1209910066798L983.5114068098958,316.17084140721704L986.9818534244791,321.10118049494923L987.1015239973958,317.1171651344746L989.4351001692709,322.85469062924386L989.4949354557292,327.02571433568374L990.2129588932293,321.4879687625915L991.9481822005208,326.0554107680917L994.7006053776041,325.25805891323836L996.0169816796874,322.8270460927859L1002.0005103255208,321.929726594314L1002.8980396223958,322.27793329227717L1003.9152394921875,322.046851160191L1004.3939217838542,320.848097897321L1006.4283215234375,322.3160549096763L1007.6848625390626,304.9635862216353L1008.3430506901042,318.8314371259883L1009.1209094140626,317.46614427138115L1009.3602505598959,312.2145092051476L1011.2151444401043,325.14013908635826L1011.5143208723958,320.9508796764538L1011.8733325911459,316.85131271667774L1012.5315207421875,321.764115684852L1012.7708618880209,324.5292891032994L1013.6683911848959,321.26594347711654L1014.5060851953125,321.777591233328L1018.3953788151042,325.2590253396891L1021.1478019921874,318.67852054834367L1021.2076372786458,313.51821936499323L1021.4469784244792,316.8317910779267L1023.1223664453124,308.0170584313571L1023.8403898828126,311.23325719330455L1024.4387427473957,319.7439929826185L1024.678083893229,319.24079992175103L1025.5157779036458,324.5238732529804L1026.4133072005209,320.1752737333998L1027.7895187890626,317.72587159946556L1028.3280363671875,314.9812819233164L1029.1657303776042,319.85318424943836L1036.2861294661457,326.33090199502186L1037.243494049479,322.23542632833124L1038.0811880598958,322.77305963281543L1038.9188820703125,224.00724498853083L1039.4573996484376,289.72741766199465L1041.1926229557291,323.29923275224866L1042.3294933984375,322.95309583954514L1043.286857981771,319.53994270246477L1043.6458697005207,319.7035364929587L1044.5433989973958,321.7448292888701L1044.9024107161458,321.2515515351668L1046.5777987369793,315.2233660437166L1046.697469309896,322.28436911311L1047.1761516015624,318.498981160298L1053.758033111979,321.58591050952674L1055.1342447005209,316.04353820271785L1055.4334211328126,325.1413925440982L1057.2284797265625,309.0773923911154L1059.143208893229,320.99965392909945L1059.8612323307293,314.29245949555184L1060.4595851953125,318.91765008978547L1062.0751379296876,321.5688396088779L1062.7333260807293,320.1342396700755L1064.1095376692708,320.91845655180515L1064.5283846744792,318.7634080771357L1064.7078905338542,322.56752591878177L1065.186572825521,306.7851166270673L1065.4857492578126,313.41343275569375L1065.9644315494793,315.72873071134086L1066.323443268229,314.79708332400764L1066.9816314192708,317.7877053368836L1069.4947134505207,318.1748236466199L1069.6143840234374,320.084215470776L1072.366807200521,326.95465785283596L1072.426642486979,314.9283417670056L1074.8200539453126,322.5734649209306L1075.8970891015626,293.28952687159176L1077.8716535546876,319.1798825778067L1079.0085239973957,317.54697122909124L1079.6068768619791,318.06318866387005L1081.6412766015626,317.94828485995527L1083.3764999088542,323.00621857233347L1084.0945233463542,320.9729415860027L1084.5732056380207,321.6077090876177L1086.0690877994791,315.81855131611223L1088.163322825521,321.39541477728636L1088.223158111979,322.58518317081035L1091.2149224348957,324.2418768612668L1091.394428294271,300.51855823323126L1091.5140988671874,318.8585936214775L1091.8731105859374,323.66653098091484L1095.8222394921875,319.38588151074947L1097.677133372396,319.5000971417874L1097.7968039453126,325.05175100471826L1100.549227122396,318.46887886356564L1101.686097565104,317.3103872250765L1101.7459328515627,320.61311494857074L1101.865603424479,312.3358382966369L1102.6434621484375,317.65226694587614L1106.0540734765625,304.52175114601846L1106.2335793359375,319.0471512341872L1110.2425435286457,314.7585860203951L1113.1744725651042,323.0069857446477L1113.294143138021,320.8695734554902L1113.8924960026043,316.41647172458465L1115.9867310286459,321.91292253620924L1116.5252486067707,321.9572464872152L1120.8333892317708,320.6301630271599L1121.072730377604,297.9349676549434L1124.5431769921875,322.91361192073674L1125.9193885807292,321.93185957912357L1126.996423736979,322.94240809343756L1128.7914823307292,320.4989625170827L1128.9111529036459,319.18319002091886L1129.7488469140626,317.15353998653586L1129.9283527734376,322.65616153199227L1131.3643996484375,313.78502855375405L1133.7578111067708,316.8015588710084L1133.997152252604,323.5166690481827L1137.048751861979,316.5507339017465L1137.8864458723958,323.88803311455996L1139.5019986067707,318.84419465735556L1140.1601867578124,318.3680439816788L1140.3396926171874,320.49332195725293L1141.4765630598959,318.45191856212915L1144.1093156640625,317.4589939445257L1144.4683273828125,325.07701853588225L1144.5281626692708,310.91423815414305L1145.485527252604,310.71273341141637L1146.2035506901043,317.53732978664334L1148.3576210026042,324.0932227421552L1149.3149855859374,313.3579575952142L1150.6313618880208,322.74550638459624L1150.7510324609375,313.7503320008516L1151.8879029036457,323.11053996272386L1152.665761627604,320.06507654041053L1152.7255969140626,321.25803300011904L1152.845267486979,317.9261650174856L1153.2641144921874,318.5438826849684L1153.7427967838541,312.90458860173817L1160.5041841536458,316.60931637343015L1162.2394074609376,319.85621958337725L1162.718089752604,314.6279946837574L1162.7779250390624,322.3990780517459L1167.7442538151042,324.70309049887584L1168.1631008203124,317.842085038498L1170.6163475651042,315.15991018451746L1173.8474530338542,325.08109139576555L1174.7449823307293,320.84538733884693L1174.8048176171876,324.0884125541896L1175.7023469140624,316.9940541667863L1175.7621822005208,318.99278908800335L1177.0785585026042,318.2859618106857L1178.0957583723957,324.43304496649654L1178.6342759505208,323.3715962368995L1180.6686756901042,315.57619508653875L1182.4637342838541,319.3461009051651L1182.8825812890625,315.1198925806209L1185.6350044661458,320.5061374215409L1188.5669335026041,311.123909683153L1189.1652863671875,323.4156603675336L1189.5841333723959,319.2770167749375L1189.6439686588542,316.02709578648205L1189.8833098046875,305.1850655332207L1192.2168859765625,318.2594513550401L1192.8750741276042,324.17880195491017L1193.8922739973957,321.75769215282054L1194.610297434896,324.851068733912L1197.0635441796876,318.7626057939604L1197.2430500390626,321.95428313054146L1198.8586027734375,323.81368235517294L1199.2774497786459,316.1923152098432L1200.5938260807293,318.1155266689137L1201.5511906640625,322.7075199440122L1201.8503670963541,314.7289980977773L1202.0298729557292,318.45520493872465L1203.286413971354,313.12970890961583L1204.0044374088543,310.27854197025295L1204.4831197005208,323.45131193585695L1204.7224608463541,322.16843480542303L1204.9618019921875,319.8055335443467L1209.1502720442709,320.7226380130276L1213.278906809896,317.5065252726897L1215.0141301171875,318.0855384824797L1216.3903417057293,317.8462246090173L1216.6296828515624,321.80061869155617L1217.4075415755208,307.38295979164536L1218.6640825911459,323.3373842138797L1219.1427648828126,322.62795697730036L1220.9378234765625,322.50718614850194L1220.9976587630208,311.25219950284804L1221.7156822005209,321.0257184768096L1222.4337056380207,323.21003536526115L1222.9123879296876,318.39408921841533L1223.331234934896,321.7975868687034L1223.9295877994791,319.1092114366591L1224.7672818098958,323.3058230608702L1225.5451405338542,320.952175267227L1226.0836581119793,319.1470574337989L1227.2803638411458,322.02851451300086L1227.9983872786459,321.60510386172683L1229.1950930078126,317.31360864657904L1231.827845611979,317.05902154855426L1233.6229042057291,323.0378920800984L1233.9220806380208,316.55521755870427L1233.9819159244792,311.4063941158354L1234.6999393619792,322.84682579636575L1234.999115794271,321.77183656319977L1235.3581275130207,321.0169074062258L1236.9736802473958,318.2053613180295L1242.1195148828126,313.2566610055044L1242.1793501692707,322.2741360526532L1242.5383618880207,316.39358822088684L1242.7178677473958,322.1709698095918L1243.4358911848958,320.7281767513603L1244.3334204817709,321.98993469886483L1248.9407375390624,324.2323319736868L1250.4964549869792,324.12412732206286L1250.8554667057292,316.68240138627584L1250.9153019921876,321.9381602231413L1252.471019440104,322.334112425521L1253.0095370182291,322.4103574158624L1254.5054191796876,322.05745112914593L1256.0611366276041,322.03391807451845L1258.753724518229,320.8084454463795L1258.933230377604,321.6243586579338L1260.2496066796875,319.7361579939723L1262.5233475651041,315.1298974204808L1263.1217004296875,323.73837833590807L1263.3610415755209,320.2266637451947L1263.4208768619792,318.562993526645L1269.1052290755208,322.3044876364991L1269.2248996484375,319.63538806717844L1269.5240760807292,317.35099820252503L1273.1141932682292,321.27865711990745L1273.2338638411459,320.4887856340036L1275.088757721354,316.48999913427974L1275.6871105859375,324.59493412468584L1278.6788749088541,325.878315095976L1279.1575572005208,321.3974810514599L1280.055086497396,319.30895361416043L1280.653439361979,320.1682515611872L1280.8927805078124,316.80406754203136L1281.7304745182291,321.9180311664939L1283.3460272526042,322.4017394550145L1284.423062408854,317.91918146722014L1284.9615799869791,318.71109464969487L1285.2009211328125,323.65240061488004L1286.3976268619792,323.5896364396438L1286.5771327213542,322.33288178984077L1289.2697206119792,324.91171045759694L1293.518025950521,327.39436784358696L1294.4753905338541,322.45358590800316L1294.6548963932291,323.6901061685756L1295.7319315494792,323.52237631864847L1296.1507785546873,318.05412479508664L1298.5441900130209,318.90857217665763L1300.0999074609374,322.71155593749137L1302.2539777734376,322.75954370684923L1302.3736483463542,320.91394129507245L1302.6129894921876,320.92824370432646L1306.322777252604,318.42516759708525L1306.9211301171874,318.2484634110704L1307.2801418359375,313.80873716268684L1308.1178358463542,315.03150976561005L1310.1522355859374,320.2686844237149L1311.1096001692708,325.0808877527714L1311.7677883203125,316.21660841461267L1314.4005409244792,319.198652844131L1315.2980702213542,323.0554896436632L1315.3579055078126,321.70063700359316L1315.5972466536457,316.2832769175991L1316.375105377604,319.32528718672694" style="fill: none;" fill="none"></path></g></g></g></g></g></g><g transform="translate(61, 377)" clip-path="url(#clip_1)"><clipPath id="clip_1"><rect width="1436" height="23"></rect></clipPath><g><g><line x1="0" y1="0" x2="0" y2="5" style="visibility: inherit;" fill="rgb(0, 0, 0)" stroke="rgb(204, 204, 204)" stroke-width="1px"></line><line x1="119.67057291666666" y1="0" x2="119.67057291666666" y2="5" style="visibility: inherit;" fill="rgb(0, 0, 0)" stroke="rgb(204, 204, 204)" stroke-width="1px"></line><line x1="239.34114583333331" y1="0" x2="239.34114583333331" y2="5" style="visibility: inherit;" fill="rgb(0, 0, 0)" stroke="rgb(204, 204, 204)" stroke-width="1px"></line><line x1="359.01171875" y1="0" x2="359.01171875" y2="5" style="visibility: inherit;" fill="rgb(0, 0, 0)" stroke="rgb(204, 204, 204)" stroke-width="1px"></line><line x1="478.68229166666663" y1="0" x2="478.68229166666663" y2="5" style="visibility: inherit;" fill="rgb(0, 0, 0)" stroke="rgb(204, 204, 204)" stroke-width="1px"></line><line x1="598.3528645833334" y1="0" x2="598.3528645833334" y2="5" style="visibility: inherit;" fill="rgb(0, 0, 0)" stroke="rgb(204, 204, 204)" stroke-width="1px"></line><line x1="718.0234375" y1="0" x2="718.0234375" y2="5" style="visibility: inherit;" fill="rgb(0, 0, 0)" stroke="rgb(204, 204, 204)" stroke-width="1px"></line><line x1="837.6940104166667" y1="0" x2="837.6940104166667" y2="5" style="visibility: inherit;" fill="rgb(0, 0, 0)" stroke="rgb(204, 204, 204)" stroke-width="1px"></line><line x1="957.3645833333333" y1="0" x2="957.3645833333333" y2="5" style="visibility: inherit;" fill="rgb(0, 0, 0)" stroke="rgb(204, 204, 204)" stroke-width="1px"></line><line x1="1077.03515625" y1="0" x2="1077.03515625" y2="5" style="visibility: inherit;" fill="rgb(0, 0, 0)" stroke="rgb(204, 204, 204)" stroke-width="1px"></line><line x1="1196.7057291666667" y1="0" x2="1196.7057291666667" y2="5" style="visibility: inherit;" fill="rgb(0, 0, 0)" stroke="rgb(204, 204, 204)" stroke-width="1px"></line><line x1="1316.3763020833333" y1="0" x2="1316.3763020833333" y2="5" style="visibility: inherit;" fill="rgb(0, 0, 0)" stroke="rgb(204, 204, 204)" stroke-width="1px"></line><line x1="1436.046875" y1="0" x2="1436.046875" y2="5" style="visibility: inherit;" fill="rgb(0, 0, 0)" stroke="rgb(204, 204, 204)" stroke-width="1px"></line></g><g transform="translate(0, 8)"><text x="0" y="0" dx="0em" dy="0.95em" style="text-anchor: middle; visibility: hidden; font-family: Roboto, sans-serif; font-size: 12px; font-weight: 200;" fill="rgb(255, 255, 255)" stroke="none" stroke-width="1px">-100k</text><text x="119.67057291666666" y="0" dx="0em" dy="0.95em" style="text-anchor: middle; visibility: inherit; font-family: Roboto, sans-serif; font-size: 12px; font-weight: 200;" fill="rgb(255, 255, 255)" stroke="none" stroke-width="1px">0</text><text x="239.34114583333331" y="0" dx="0em" dy="0.95em" style="text-anchor: middle; visibility: inherit; font-family: Roboto, sans-serif; font-size: 12px; font-weight: 200;" fill="rgb(255, 255, 255)" stroke="none" stroke-width="1px">100k</text><text x="359.01171875" y="0" dx="0em" dy="0.95em" style="text-anchor: middle; visibility: inherit; font-family: Roboto, sans-serif; font-size: 12px; font-weight: 200;" fill="rgb(255, 255, 255)" stroke="none" stroke-width="1px">200k</text><text x="478.68229166666663" y="0" dx="0em" dy="0.95em" style="text-anchor: middle; visibility: inherit; font-family: Roboto, sans-serif; font-size: 12px; font-weight: 200;" fill="rgb(255, 255, 255)" stroke="none" stroke-width="1px">300k</text><text x="598.3528645833334" y="0" dx="0em" dy="0.95em" style="text-anchor: middle; visibility: inherit; font-family: Roboto, sans-serif; font-size: 12px; font-weight: 200;" fill="rgb(255, 255, 255)" stroke="none" stroke-width="1px">400k</text><text x="718.0234375" y="0" dx="0em" dy="0.95em" style="text-anchor: middle; visibility: inherit; font-family: Roboto, sans-serif; font-size: 12px; font-weight: 200;" fill="rgb(255, 255, 255)" stroke="none" stroke-width="1px">500k</text><text x="837.6940104166667" y="0" dx="0em" dy="0.95em" style="text-anchor: middle; visibility: inherit; font-family: Roboto, sans-serif; font-size: 12px; font-weight: 200;" fill="rgb(255, 255, 255)" stroke="none" stroke-width="1px">600k</text><text x="957.3645833333333" y="0" dx="0em" dy="0.95em" style="text-anchor: middle; visibility: inherit; font-family: Roboto, sans-serif; font-size: 12px; font-weight: 200;" fill="rgb(255, 255, 255)" stroke="none" stroke-width="1px">700k</text><text x="1077.03515625" y="0" dx="0em" dy="0.95em" style="text-anchor: middle; visibility: inherit; font-family: Roboto, sans-serif; font-size: 12px; font-weight: 200;" fill="rgb(255, 255, 255)" stroke="none" stroke-width="1px">800k</text><text x="1196.7057291666667" y="0" dx="0em" dy="0.95em" style="text-anchor: middle; visibility: inherit; font-family: Roboto, sans-serif; font-size: 12px; font-weight: 200;" fill="rgb(255, 255, 255)" stroke="none" stroke-width="1px">900k</text><text x="1316.3763020833333" y="0" dx="0em" dy="0.95em" style="text-anchor: middle; visibility: inherit; font-family: Roboto, sans-serif; font-size: 12px; font-weight: 200;" fill="rgb(255, 255, 255)" stroke="none" stroke-width="1px">1M</text><text x="1436.046875" y="0" dx="0em" dy="0.95em" style="text-anchor: middle; visibility: hidden; font-family: Roboto, sans-serif; font-size: 12px; font-weight: 200;" fill="rgb(255, 255, 255)" stroke="none" stroke-width="1px">1.1M</text></g><line x1="0" y1="0" x2="1436.046875" y2="0" fill="rgb(0, 0, 0)" stroke="rgb(204, 204, 204)" stroke-width="1px"></line></g></g></g></g></svg>